<?xml version="1.0" standalone="no"?><!DOCTYPE svg PUBLIC "-//W3C//DTD SVG 1.1//EN" "http://www.w3.org/Graphics/SVG/1.1/DTD/svg11.dtd"><svg width="100%" height="100%" viewBox="0 0 1068 1129" version="1.1" xmlns="http://www.w3.org/2000/svg" xmlns:xlink="http://www.w3.org/1999/xlink" xml:space="preserve" style="fill-rule:evenodd;clip-rule:evenodd;stroke-linejoin:round;stroke-miterlimit:1.41421;"><g id="Layer1"><g><rect x="298.202" y="541.292" width="472.441" height="34.646" style="fill:none;stroke-width:3px;stroke:#393939;"/><rect x="51.245" y="43.654" width="966.356" height="23.622" style="fill:none;stroke-width:3px;stroke:#393939;"/><path d="M996.34,48.958c3.261,0 5.905,2.644 5.905,5.905c0,3.262 -2.644,5.906 -5.905,5.906c-3.262,0 -5.906,-2.644 -5.906,-5.906c0,-3.261 2.644,-5.905 5.906,-5.905Z" style="fill:none;stroke-width:1px;stroke:#d3d0c9;"/><path d="M978.623,48.958c3.262,0 5.906,2.644 5.906,5.905c0,3.262 -2.644,5.906 -5.906,5.906c-3.261,0 -5.905,-2.644 -5.905,-5.906c0,-3.261 2.644,-5.905 5.905,-5.905Z" style="fill:none;stroke-width:1px;stroke:#d3d0c9;"/><path d="M919.568,48.958c3.262,0 5.906,2.644 5.906,5.905c0,3.262 -2.644,5.906 -5.906,5.906c-3.261,0 -5.905,-2.644 -5.905,-5.906c0,-3.261 2.644,-5.905 5.905,-5.905Z" style="fill:none;stroke-width:1px;stroke:#d3d0c9;"/><path d="M901.852,48.958c3.261,0 5.905,2.644 5.905,5.905c0,3.262 -2.644,5.906 -5.905,5.906c-3.262,0 -5.906,-2.644 -5.906,-5.906c0,-3.261 2.644,-5.905 5.906,-5.905Z" style="fill:none;stroke-width:1px;stroke:#d3d0c9;"/><path d="M884.135,48.958c3.261,0 5.905,2.644 5.905,5.905c0,3.262 -2.644,5.906 -5.905,5.906c-3.262,0 -5.906,-2.644 -5.906,-5.906c0,-3.261 2.644,-5.905 5.906,-5.905Z" style="fill:none;stroke-width:1px;stroke:#d3d0c9;"/><path d="M866.419,48.958c3.261,0 5.905,2.644 5.905,5.905c0,3.262 -2.644,5.906 -5.905,5.906c-3.262,0 -5.906,-2.644 -5.906,-5.906c0,-3.261 2.644,-5.905 5.906,-5.905Z" style="fill:none;stroke-width:1px;stroke:#d3d0c9;"/><rect x="931.4" y="48.958" width="35.433" height="11.811" style="fill:none;stroke-width:1px;stroke:#d3d0c9;"/><path d="M86.893,50.137l70.866,0l0,11.811l-70.866,0l0,-11.811l0,0Z" style="fill:none;stroke-width:1px;stroke:#d3d0c9;"/><path d="M169.571,50.137l35.433,0l0,11.811l-35.433,0l0,-11.811l0,0Z" style="fill:none;stroke-width:1px;stroke:#d3d0c9;"/><path d="M215.635,50.137l24.803,0l0,11.811l-24.803,0l0,-11.811l0,0Z" style="fill:none;stroke-width:1px;stroke:#d3d0c9;"/><path d="M251.656,50.137l36.024,0l0,11.811l-36.024,0l0,-11.811l0,0Z" style="fill:none;stroke-width:1px;stroke:#d3d0c9;"/><path d="M299.499,50.137l47.244,0l0,11.811l-47.244,0l0,-11.811l0,0Z" style="fill:none;stroke-width:1px;stroke:#d3d0c9;"/><path d="M323.12,546.811c6.523,0 11.811,5.288 11.811,11.811c0,6.523 -5.288,11.811 -11.811,11.811c-6.523,0 -11.811,-5.288 -11.811,-11.811c0,-6.524 5.288,-11.811 11.811,-11.811Z" style="fill:none;stroke-width:2px;stroke:#6cc;"/><path d="M358.553,546.811c6.523,0 11.811,5.288 11.811,11.811c0,6.523 -5.288,11.811 -11.811,11.811c-6.523,0 -11.811,-5.288 -11.811,-11.811c0,-6.524 5.288,-11.811 11.811,-11.811Z" style="fill:none;stroke-width:2px;stroke:#a09f93;"/><path d="M393.879,546.811c6.523,0 11.811,5.288 11.811,11.811c0,6.523 -5.288,11.811 -11.811,11.811c-6.524,0 -11.811,-5.288 -11.811,-11.811c0,-6.524 5.288,-11.811 11.811,-11.811Z" style="fill:none;stroke-width:2px;stroke:#f2777a;"/><path d="M429.419,546.811c6.523,0 11.811,5.288 11.811,11.811c0,6.523 -5.288,11.811 -11.811,11.811c-6.523,0 -11.811,-5.288 -11.811,-11.811c0,-6.524 5.288,-11.811 11.811,-11.811Z" style="fill:none;stroke-width:2px;stroke:#6cc;"/><path d="M464.96,546.811c6.523,0 11.811,5.288 11.811,11.811c0,6.523 -5.288,11.811 -11.811,11.811c-6.523,0 -11.811,-5.288 -11.811,-11.811c0,-6.524 5.288,-11.811 11.811,-11.811Z" style="fill:none;stroke-width:2px;stroke:#6cc;"/><path d="M500.393,546.811c6.523,0 11.811,5.288 11.811,11.811c0,6.523 -5.288,11.811 -11.811,11.811c-6.523,0 -11.811,-5.288 -11.811,-11.811c0,-6.524 5.288,-11.811 11.811,-11.811Z" style="fill:none;stroke-width:2px;stroke:#6cc;"/><path d="M535.718,546.811c6.523,0 11.811,5.288 11.811,11.811c0,6.523 -5.288,11.811 -11.811,11.811c-6.523,0 -11.811,-5.288 -11.811,-11.811c0,-6.524 5.288,-11.811 11.811,-11.811Z" style="fill:none;stroke-width:2px;stroke:#f99157;"/><path d="M571.151,546.811c6.523,0 11.811,5.288 11.811,11.811c0,6.523 -5.288,11.811 -11.811,11.811c-6.523,0 -11.811,-5.288 -11.811,-11.811c0,-6.524 5.288,-11.811 11.811,-11.811Z" style="fill:none;stroke-width:2px;stroke:#6cc;"/><path d="M606.585,546.811c6.523,0 11.811,5.288 11.811,11.811c0,6.523 -5.288,11.811 -11.811,11.811c-6.523,0 -11.811,-5.288 -11.811,-11.811c0,-6.524 5.288,-11.811 11.811,-11.811Z" style="fill:none;stroke-width:2px;stroke:#f99157;"/><path d="M642.018,546.811c6.523,0 11.811,5.288 11.811,11.811c0,6.523 -5.288,11.811 -11.811,11.811c-6.523,0 -11.811,-5.288 -11.811,-11.811c0,-6.524 5.288,-11.811 11.811,-11.811Z" style="fill:none;stroke-width:2px;stroke:#c9c;"/><path d="M677.451,546.811c6.523,0 11.811,5.288 11.811,11.811c0,6.523 -5.288,11.811 -11.811,11.811c-6.523,0 -11.811,-5.288 -11.811,-11.811c0,-6.524 5.288,-11.811 11.811,-11.811Z" style="fill:none;stroke-width:2px;stroke:#9c9;"/><path d="M712.884,546.811c6.523,0 11.811,5.288 11.811,11.811c0,6.523 -5.288,11.811 -11.811,11.811c-6.523,0 -11.811,-5.288 -11.811,-11.811c0,-6.524 5.288,-11.811 11.811,-11.811Z" style="fill:none;stroke-width:2px;stroke:#6cc;"/><path d="M748.317,546.811c6.523,0 11.811,5.288 11.811,11.811c0,6.523 -5.288,11.811 -11.811,11.811c-6.523,0 -11.811,-5.288 -11.811,-11.811c0,-6.524 5.288,-11.811 11.811,-11.811Z" style="fill:none;stroke-width:2px;stroke:#a09f93;"/><path d="M464.852,546.811c6.523,0 11.811,5.288 11.811,11.811c0,6.523 -5.288,11.811 -11.811,11.811c-6.523,0 -11.811,-5.288 -11.811,-11.811c0,-6.524 5.288,-11.811 11.811,-11.811Z" style="fill:none;stroke-width:1px;stroke:#c9c;"/><path d="M69.18,50.139c3.261,0 5.905,2.644 5.905,5.905c0,3.262 -2.644,5.906 -5.905,5.906c-3.262,0 -5.906,-2.644 -5.906,-5.906c0,-3.261 2.644,-5.905 5.906,-5.905Z" style="fill:none;stroke-width:1px;stroke:#d3d0c9;"/><rect x="949.1" y="80.668" width="47.244" height="47.244" style="fill:none;stroke-width:3px;stroke:#d3d0c9;"/><rect x="949.1" y="139.723" width="47.244" height="47.244" style="fill:none;stroke-width:3px;stroke:#6cc;"/><rect x="949.1" y="198.778" width="47.244" height="47.244" style="fill:none;stroke-width:3px;stroke:#fc6;"/></g><g><path d="M1065.92,620.265l-1062.99,0l0,35.658c0,17.786 14.418,32.205 32.204,32.205l998.586,0c17.786,0 32.205,-14.419 32.205,-32.205l-0.001,-35.658Z" style="fill:none;stroke-width:3px;stroke:#f2f0ec;"/><path d="M1065.92,35.068c0,-17.65 -14.308,-31.959 -31.958,-31.959l-999.078,0c-17.65,0 -31.958,14.309 -31.958,31.959l0,582.215l1062.99,0l0,-582.215l0,0Z" style="fill:none;stroke-width:3px;stroke:#2d2d2d;"/><rect x="51.242" y="44.05" width="966.356" height="532.283" style="fill:none;stroke-width:3px;stroke:#2d2d2d;"/><path d="M645.781,830.296l-223.788,0l17.903,-141.732l187.982,0l17.903,141.732l0,0Z" style="fill:none;stroke-width:3px;stroke:#f2f0ec;"/><path d="M711.584,835.783c0,-3.262 -2.644,-5.906 -5.906,-5.906l-342.519,0c-3.262,0 -5.906,2.644 -5.906,5.906l0,11.811c0,3.261 2.644,5.905 5.906,5.905l342.519,0c3.262,0 5.906,-2.644 5.906,-5.905l0,-11.811Z" style="fill:none;stroke-width:3px;stroke:#d3d0c9;"/></g><g><g><path d="M709.614,920.584l-508.464,0l0,185.138c0,5.381 4.363,9.744 9.744,9.744l488.977,0c5.381,0 9.744,-4.363 9.744,-9.744l0,-185.138l-0.001,0Z" style="fill:none;stroke-width:3px;stroke:#d3d0c9;"/><g id="keys"><rect x="213.552" y="944.209" width="23.622" height="11.811" style="fill:none;stroke-width:1px;stroke:#f2f0ec;"/><rect x="248.985" y="944.209" width="23.622" height="11.811" style="fill:none;stroke-width:1px;stroke:#f2f0ec;"/><rect x="284.418" y="944.209" width="23.622" height="11.811" style="fill:none;stroke-width:1px;stroke:#f2f0ec;"/><rect x="319.851" y="944.209" width="23.622" height="11.811" style="fill:none;stroke-width:1px;stroke:#f2f0ec;"/><rect x="355.284" y="944.209" width="23.622" height="11.811" style="fill:none;stroke-width:1px;stroke:#f2f0ec;"/><rect x="390.717" y="944.209" width="23.622" height="11.811" style="fill:none;stroke-width:1px;stroke:#f2f0ec;"/><rect x="426.15" y="944.209" width="23.622" height="11.811" style="fill:none;stroke-width:1px;stroke:#f2f0ec;"/><rect x="461.583" y="944.209" width="23.622" height="11.811" style="fill:none;stroke-width:1px;stroke:#f2f0ec;"/><rect x="497.017" y="944.209" width="23.622" height="11.811" style="fill:none;stroke-width:1px;stroke:#f2f0ec;"/><rect x="532.45" y="944.209" width="23.622" height="11.811" style="fill:none;stroke-width:1px;stroke:#f2f0ec;"/><rect x="567.883" y="944.209" width="23.622" height="11.811" style="fill:none;stroke-width:1px;stroke:#f2f0ec;"/><rect x="603.316" y="944.209" width="23.622" height="11.811" style="fill:none;stroke-width:1px;stroke:#f2f0ec;"/><rect x="638.749" y="944.209" width="23.622" height="11.811" style="fill:none;stroke-width:1px;stroke:#f2f0ec;"/><rect x="674.182" y="944.209" width="23.622" height="11.811" style="fill:none;stroke-width:1px;stroke:#f2f0ec;"/><rect x="213.552" y="961.93" width="23.622" height="23.622" style="fill:none;stroke-width:1px;stroke:#f2f0ec;"/><rect x="213.552" y="1080.04" width="23.622" height="23.622" style="fill:none;stroke-width:1px;stroke:#f2f0ec;"/><rect x="245.048" y="1080.04" width="23.622" height="23.622" style="fill:none;stroke-width:1px;stroke:#f2f0ec;"/><rect x="276.544" y="1080.04" width="23.622" height="23.622" style="fill:none;stroke-width:1px;stroke:#f2f0ec;"/><rect x="247.263" y="961.93" width="23.622" height="23.622" style="fill:none;stroke-width:1px;stroke:#f2f0ec;"/><rect x="280.973" y="961.93" width="23.622" height="23.622" style="fill:none;stroke-width:1px;stroke:#f2f0ec;"/><rect x="314.684" y="961.93" width="23.622" height="23.622" style="fill:none;stroke-width:1px;stroke:#f2f0ec;"/><rect x="348.394" y="961.93" width="23.622" height="23.622" style="fill:none;stroke-width:1px;stroke:#f2f0ec;"/><rect x="382.105" y="961.93" width="23.622" height="23.622" style="fill:none;stroke-width:1px;stroke:#f2f0ec;"/><rect x="415.816" y="961.93" width="23.622" height="23.622" style="fill:none;stroke-width:1px;stroke:#f2f0ec;"/><rect x="449.526" y="961.93" width="23.622" height="23.622" style="fill:none;stroke-width:1px;stroke:#f2f0ec;"/><rect x="483.237" y="961.93" width="23.622" height="23.622" style="fill:none;stroke-width:1px;stroke:#f2f0ec;"/><rect x="516.948" y="961.93" width="23.622" height="23.622" style="fill:none;stroke-width:1px;stroke:#f2f0ec;"/><rect x="550.658" y="961.93" width="23.622" height="23.622" style="fill:none;stroke-width:1px;stroke:#f2f0ec;"/><rect x="584.369" y="961.93" width="23.622" height="23.622" style="fill:none;stroke-width:1px;stroke:#f2f0ec;"/><rect x="618.08" y="961.93" width="23.622" height="23.622" style="fill:none;stroke-width:1px;stroke:#f2f0ec;"/><rect x="650.56" y="961.93" width="46.949" height="23.622" style="fill:none;stroke-width:1px;stroke:#f2f0ec;"/><rect x="308.04" y="1080.04" width="42.963" height="23.622" style="fill:none;stroke-width:1px;stroke:#f2f0ec;"/><rect x="577.38" y="1080.04" width="23.622" height="23.622" style="fill:none;stroke-width:1px;stroke:#f2f0ec;"/><rect x="526.538" y="1080.04" width="42.963" height="23.622" style="fill:none;stroke-width:1px;stroke:#f2f0ec;"/><rect x="670.635" y="1093.03" width="27.165" height="10.63" style="fill:none;stroke-width:1px;stroke:#f2f0ec;"/><rect x="638.37" y="1093.03" width="27.165" height="10.63" style="fill:none;stroke-width:1px;stroke:#f2f0ec;"/><rect x="638.37" y="1080.04" width="27.165" height="10.63" style="fill:none;stroke-width:1px;stroke:#f2f0ec;"/><rect x="606.103" y="1093.03" width="27.165" height="10.63" style="fill:none;stroke-width:1px;stroke:#f2f0ec;"/><rect x="674.181" y="991.458" width="23.622" height="23.622" style="fill:none;stroke-width:1px;stroke:#f2f0ec;"/><rect x="640.027" y="991.458" width="23.622" height="23.622" style="fill:none;stroke-width:1px;stroke:#f2f0ec;"/><rect x="606.317" y="991.458" width="23.622" height="23.622" style="fill:none;stroke-width:1px;stroke:#f2f0ec;"/><rect x="572.606" y="991.458" width="23.622" height="23.622" style="fill:none;stroke-width:1px;stroke:#f2f0ec;"/><rect x="538.896" y="991.458" width="23.622" height="23.622" style="fill:none;stroke-width:1px;stroke:#f2f0ec;"/><rect x="505.185" y="991.458" width="23.622" height="23.622" style="fill:none;stroke-width:1px;stroke:#f2f0ec;"/><rect x="471.474" y="991.458" width="23.622" height="23.622" style="fill:none;stroke-width:1px;stroke:#f2f0ec;"/><rect x="437.764" y="991.458" width="23.622" height="23.622" style="fill:none;stroke-width:1px;stroke:#f2f0ec;"/><rect x="404.053" y="991.458" width="23.622" height="23.622" style="fill:none;stroke-width:1px;stroke:#f2f0ec;"/><rect x="370.342" y="991.458" width="23.622" height="23.622" style="fill:none;stroke-width:1px;stroke:#f2f0ec;"/><rect x="336.632" y="991.458" width="23.622" height="23.622" style="fill:none;stroke-width:1px;stroke:#f2f0ec;"/><rect x="302.921" y="991.458" width="23.622" height="23.622" style="fill:none;stroke-width:1px;stroke:#f2f0ec;"/><rect x="269.211" y="991.458" width="23.622" height="23.622" style="fill:none;stroke-width:1px;stroke:#f2f0ec;"/><rect x="213.55" y="991.458" width="46.949" height="23.622" style="fill:none;stroke-width:1px;stroke:#f2f0ec;"/><rect x="644.654" y="1020.99" width="53.15" height="23.622" style="fill:none;stroke-width:1px;stroke:#f2f0ec;"/><rect x="213.551" y="1020.99" width="53.15" height="23.622" style="fill:none;stroke-width:1px;stroke:#f2f0ec;"/><rect x="611.189" y="1020.99" width="23.622" height="23.622" style="fill:none;stroke-width:1px;stroke:#f2f0ec;"/><rect x="577.724" y="1020.99" width="23.622" height="23.622" style="fill:none;stroke-width:1px;stroke:#f2f0ec;"/><rect x="544.26" y="1020.99" width="23.622" height="23.622" style="fill:none;stroke-width:1px;stroke:#f2f0ec;"/><rect x="510.795" y="1020.99" width="23.622" height="23.622" style="fill:none;stroke-width:1px;stroke:#f2f0ec;"/><rect x="477.331" y="1020.99" width="23.622" height="23.622" style="fill:none;stroke-width:1px;stroke:#f2f0ec;"/><rect x="443.866" y="1020.99" width="23.622" height="23.622" style="fill:none;stroke-width:1px;stroke:#f2f0ec;"/><rect x="410.401" y="1020.99" width="23.622" height="23.622" style="fill:none;stroke-width:1px;stroke:#f2f0ec;"/><rect x="376.937" y="1020.99" width="23.622" height="23.622" style="fill:none;stroke-width:1px;stroke:#f2f0ec;"/><rect x="343.472" y="1020.99" width="23.622" height="23.622" style="fill:none;stroke-width:1px;stroke:#f2f0ec;"/><rect x="310.008" y="1020.99" width="23.622" height="23.622" style="fill:none;stroke-width:1px;stroke:#f2f0ec;"/><rect x="276.543" y="1020.99" width="23.622" height="23.622" style="fill:none;stroke-width:1px;stroke:#f2f0ec;"/><rect x="626.935" y="1050.99" width="70.866" height="23.622" style="fill:none;stroke-width:1px;stroke:#f2f0ec;"/><rect x="213.555" y="1050.51" width="70.866" height="23.622" style="fill:none;stroke-width:1px;stroke:#f2f0ec;"/><rect x="593.651" y="1050.99" width="23.622" height="23.622" style="fill:none;stroke-width:1px;stroke:#f2f0ec;"/><rect x="560.366" y="1050.99" width="23.622" height="23.622" style="fill:none;stroke-width:1px;stroke:#f2f0ec;"/><rect x="527.08" y="1050.99" width="23.622" height="23.622" style="fill:none;stroke-width:1px;stroke:#f2f0ec;"/><rect x="493.794" y="1050.99" width="23.622" height="23.622" style="fill:none;stroke-width:1px;stroke:#f2f0ec;"/><rect x="460.509" y="1050.99" width="23.622" height="23.622" style="fill:none;stroke-width:1px;stroke:#f2f0ec;"/><rect x="427.223" y="1050.99" width="23.622" height="23.622" style="fill:none;stroke-width:1px;stroke:#f2f0ec;"/><rect x="393.938" y="1050.99" width="23.622" height="23.622" style="fill:none;stroke-width:1px;stroke:#f2f0ec;"/><rect x="360.652" y="1050.99" width="23.622" height="23.622" style="fill:none;stroke-width:1px;stroke:#f2f0ec;"/><rect x="327.366" y="1050.99" width="23.622" height="23.622" style="fill:none;stroke-width:1px;stroke:#f2f0ec;"/><rect x="360.649" y="1080.04" width="156.77" height="23.622" style="fill:none;stroke-width:1px;stroke:#f2f0ec;"/><rect x="294.081" y="1050.99" width="23.622" height="23.622" style="fill:none;stroke-width:1px;stroke:#f2f0ec;"/></g></g><g><path d="M839.042,957.921c-5.194,-19.386 -25.121,-30.891 -44.508,-25.696l-17.551,4.703c-19.386,5.194 -30.891,25.121 -25.696,44.507l23.986,89.516c5.194,19.386 25.121,30.891 44.507,25.697l17.551,-4.703c19.387,-5.195 30.891,-25.121 25.697,-44.508l-23.986,-89.516Z" style="fill:none;stroke-width:3px;stroke:#f2f0ec;"/><path d="M819.938,1062.14c3.029,-0.812 6.169,1.084 7.013,4.234c0.844,3.151 -0.927,6.363 -3.956,7.174c-3.029,0.812 -6.169,-1.084 -7.013,-4.234c-0.844,-3.151 0.927,-6.363 3.956,-7.174Z" style="fill:none;stroke-width:3px;stroke:#d3d0c9;"/></g></g><g><rect x="296.774" y="97.593" width="472.441" height="10.987" style="fill:none;stroke-width:1px;stroke:#000;"/><rect x="593.422" y="108.58" width="87.896" height="10.987" style="fill:none;stroke-width:1px;stroke:#2d2d2d;"/><rect x="417.63" y="119.567" width="351.584" height="384.545" style="fill:none;stroke-width:1px;stroke:#2d2d2d;"/><path d="M494.539,355.787l27.468,0l0,5.494l-27.468,0l0,-5.494l0,0Z" style="fill:none;stroke-width:1px;stroke:#6cc;"/><rect x="406.643" y="119.567" width="10.987" height="384.545" style="fill:none;stroke-width:1px;stroke:#2d2d2d;"/><path d="M412.137,322.826c1.517,0 2.747,1.23 2.747,2.747c0,1.517 -1.23,2.747 -2.747,2.747c-1.517,0 -2.747,-1.23 -2.747,-2.747c0,-1.517 1.23,-2.747 2.747,-2.747Z" style="fill:none;stroke-width:1px;stroke:#f99157;"/><path d="M450.591,300.852l65.922,0l0,5.494l-65.922,0l0,-5.494l0,0Z" style="fill:none;stroke-width:1px;stroke:#f99157;"/><rect x="522.007" y="300.852" width="27.467" height="5.494" style="fill:none;stroke-width:1px;stroke:#6cc;"/><rect x="296.774" y="108.58" width="109.87" height="395.532" style="fill:none;stroke-width:1px;stroke:#2d2d2d;"/><rect x="318.747" y="114.073" width="38.454" height="5.494" style="fill:none;stroke-width:1px;stroke:#a09f93;"/><path d="M329.734,125.06l65.922,0l0,5.494l-65.922,0l0,-5.494l0,0Z" style="fill:none;stroke-width:1px;stroke:#a09f93;"/><path d="M329.734,136.06l55.509,0l0,5.494l-55.509,0l0,-5.494l0,0Z" style="fill:none;stroke-width:0.89px;stroke:#a09f93;"/><rect x="504.875" y="108.58" width="87.896" height="10.987" style="fill:none;stroke-width:1px;stroke:#2d2d2d;"/><rect x="582.435" y="111.326" width="5.494" height="5.494" style="fill:none;stroke-width:1px;stroke:#515151;"/><rect x="670.331" y="111.326" width="5.494" height="5.494" style="fill:none;stroke-width:1px;stroke:#515151;"/><path d="M450.592,179.995l49.441,0l0,5.494l-49.441,0l0,-5.494l0,0Z" style="fill:none;stroke-width:1px;stroke:#f99157;"/><path d="M450.591,190.982l60.429,0l0,5.494l-60.429,0l0,-5.494l0,0Z" style="fill:none;stroke-width:1px;stroke:#f99157;"/><path d="M450.592,201.969l49.441,0l0,5.494l-49.441,0l0,-5.494l0,0Z" style="fill:none;stroke-width:1px;stroke:#f99157;"/><path d="M450.591,212.956l65.922,0l0,5.494l-65.922,0l0,-5.494l0,0Z" style="fill:none;stroke-width:1px;stroke:#f99157;"/><rect x="505.526" y="201.969" width="27.467" height="5.494" style="fill:none;stroke-width:1px;stroke:#6cc;"/><rect x="522.007" y="212.956" width="27.467" height="5.494" style="fill:none;stroke-width:1px;stroke:#6cc;"/><path d="M505.527,179.995l49.441,0l0,5.494l-49.441,0l0,-5.494l0,0Z" style="fill:none;stroke-width:1px;stroke:#a09f93;"/><path d="M516.513,190.982l60.429,0l0,5.494l-60.429,0l0,-5.494l0,0Z" style="fill:none;stroke-width:1px;stroke:#a09f93;"/><path d="M439.604,234.93l38.455,0l0,5.493l-38.455,0l0,-5.493l0,0Z" style="fill:none;stroke-width:1px;stroke:#f2777a;"/><path d="M439.698,168.996l38.454,0l0,5.494l-38.454,0l0,-5.494l0,0Z" style="fill:none;stroke-width:1px;stroke:#f2777a;"/><path d="M439.604,322.826l38.455,0l0,5.494l-38.455,0l0,-5.494l0,0Z" style="fill:none;stroke-width:1px;stroke:#f2777a;"/><path d="M483.552,322.826l21.974,0l0,5.494l-21.974,0l0,-5.494l0,0Z" style="fill:none;stroke-width:1px;stroke:#c9c;"/><path d="M439.604,245.917l49.442,0l0,5.493l-49.442,0l0,-5.493l0,0Z" style="fill:none;stroke-width:1px;stroke:#f2777a;"/><path d="M450.592,256.904l49.441,0l0,5.494l-49.441,0l0,-5.494l0,0Z" style="fill:none;stroke-width:1px;stroke:#f99157;"/><path d="M450.591,267.891l60.429,0l0,5.494l-60.429,0l0,-5.494l0,0Z" style="fill:none;stroke-width:1px;stroke:#f99157;"/><path d="M450.591,289.865l38.455,0l0,5.494l-38.455,0l0,-5.494l0,0Z" style="fill:none;stroke-width:1px;stroke:#f99157;"/><path d="M494.539,289.865l21.974,0l0,5.494l-21.974,0l0,-5.494l0,0Z" style="fill:none;stroke-width:1px;stroke:#6cc;"/><path d="M505.527,256.904l49.441,0l0,5.494l-49.441,0l0,-5.494l0,0Z" style="fill:none;stroke-width:1px;stroke:#a09f93;"/><rect x="516.513" y="267.891" width="43.948" height="5.494" style="fill:none;stroke-width:1px;stroke:#a09f93;"/><path d="M522.007,289.865l43.948,0l0,5.494l-43.948,0l0,-5.494l0,0Z" style="fill:none;stroke-width:1px;stroke:#a09f93;"/><path d="M450.591,278.878l38.455,0l0,5.494l-38.455,0l0,-5.494l0,0Z" style="fill:none;stroke-width:1px;stroke:#f99157;"/><path d="M450.591,333.813l32.961,0l0,5.494l-32.961,0l0,-5.494l0,0Z" style="fill:none;stroke-width:1px;stroke:#f99157;"/><path d="M450.591,344.8l60.429,0l0,5.494l-60.429,0l0,-5.494l0,0Z" style="fill:none;stroke-width:1px;stroke:#f99157;"/><rect x="489.046" y="333.813" width="32.961" height="5.494" style="fill:none;stroke-width:1px;stroke:#a09f93;"/><path d="M516.513,344.8l43.948,0l0,5.494l-43.948,0l0,-5.494l0,0Z" style="fill:none;stroke-width:1px;stroke:#a09f93;"/><path d="M450.591,355.787l38.455,0l0,5.494l-38.455,0l0,-5.494l0,0Z" style="fill:none;stroke-width:1px;stroke:#f99157;"/><path d="M450.591,366.774l60.429,0l0,5.494l-60.429,0l0,-5.494l0,0Z" style="fill:none;stroke-width:1px;stroke:#d3d0c9;"/><path d="M516.513,366.774l38.455,0l0,5.494l-38.455,0l0,-5.494l0,0Z" style="fill:none;stroke-width:1px;stroke:#d3d0c9;"/><path d="M450.591,377.761l65.922,0l0,5.494l-65.922,0l0,-5.494l0,0Z" style="fill:none;stroke-width:1px;stroke:#d3d0c9;"/><path d="M450.591,388.748l43.948,0l0,5.494l-43.948,0l0,-5.494l0,0Z" style="fill:none;stroke-width:1px;stroke:#d3d0c9;"/><path d="M522.007,377.761l38.454,0l0,5.494l-38.454,0l0,-5.494l0,0Z" style="fill:none;stroke-width:1px;stroke:#d3d0c9;"/><path d="M500.033,388.748l38.454,0l0,5.494l-38.454,0l0,-5.494l0,0Z" style="fill:none;stroke-width:1px;stroke:#d3d0c9;"/><path d="M494.54,278.878l49.441,0l0,5.494l-49.441,0l0,-5.494l0,0Z" style="fill:none;stroke-width:1px;stroke:#a09f93;"/><path d="M329.734,147.034l65.922,0l0,5.494l-66.005,0l0.083,-5.494l0,0Z" style="fill:none;stroke-width:1px;stroke:#a09f93;"/><path d="M340.722,158.021l49.441,0l0,5.494l-49.441,0l0,-5.494l0,0Z" style="fill:none;stroke-width:1px;stroke:#a09f93;"/><path d="M340.721,169.008l60.429,0l0,5.494l-60.429,0l0,-5.494l0,0Z" style="fill:none;stroke-width:1px;stroke:#a09f93;"/><path d="M340.722,179.995l54.935,0l0,5.494l-54.935,0l0,-5.494l0,0Z" style="fill:none;stroke-width:1px;stroke:#a09f93;"/><path d="M340.721,190.982l38.455,0l0,5.494l-38.455,0l0,-5.494l0,0Z" style="fill:none;stroke-width:1px;stroke:#a09f93;"/><path d="M329.734,245.917l65.922,0l0,5.493l-65.922,0l0,-5.493l0,0Z" style="fill:none;stroke-width:1px;stroke:#a09f93;"/><rect x="329.734" y="256.904" width="38.454" height="5.494" style="fill:none;stroke-width:1px;stroke:#a09f93;"/><path d="M329.734,267.891l54.935,0l0,5.494l-54.935,0l0,-5.494l0,0Z" style="fill:none;stroke-width:1px;stroke:#a09f93;"/><path d="M329.734,278.878l27.468,0l-0.042,5.494l-27.426,0l0,-5.494l0,0Z" style="fill:none;stroke-width:1px;stroke:#a09f93;"/><path d="M351.708,201.969l38.455,0l0,5.494l-38.455,0l0,-5.494l0,0Z" style="fill:none;stroke-width:1px;stroke:#a09f93;"/><path d="M511.02,111.326l38.454,0l0,5.494l-38.454,0l0,-5.494l0,0Z" style="fill:none;stroke-width:1px;stroke:#a09f93;"/><path d="M439.605,136.047l126.35,0l0,5.494l-126.35,0l0,-5.494l0,0Z" style="fill:none;stroke-width:1px;stroke:#d3d0c9;"/><rect x="439.604" y="147.034" width="60.429" height="5.494" style="fill:none;stroke-width:1px;stroke:#d3d0c9;"/><rect x="340.721" y="201.969" width="5.494" height="5.494" style="fill:none;stroke-width:1px;stroke:#515151;"/><path d="M351.709,212.956l49.441,0l0,5.494l-49.441,0l0,-5.494l0,0Z" style="fill:none;stroke-width:1px;stroke:#a09f93;"/><rect x="340.721" y="212.956" width="5.494" height="5.494" style="fill:none;stroke-width:1px;stroke:#515151;"/><rect x="406.643" y="108.58" width="10.987" height="10.987" style="fill:none;stroke-width:1px;stroke:#2d2d2d;"/><path d="M351.708,223.943l38.455,0l0,5.494l-38.455,0l0,-5.494l0,0Z" style="fill:none;stroke-width:1px;stroke:#a09f93;"/><rect x="340.721" y="223.943" width="5.494" height="5.494" style="fill:none;stroke-width:1px;stroke:#515151;"/><path d="M351.708,234.93l49.442,0l0,5.493l-49.442,0l0,-5.493l0,0Z" style="fill:none;stroke-width:1px;stroke:#a09f93;"/><rect x="340.721" y="234.93" width="5.494" height="5.494" style="fill:none;stroke-width:1px;stroke:#515151;"/><rect x="417.638" y="108.58" width="87.237" height="10.987" style="fill:none;stroke-width:1px;stroke:#2d2d2d;"/><rect x="681.318" y="108.58" width="87.896" height="10.987" style="fill:none;stroke-width:1px;stroke:#2d2d2d;"/><path d="M409.39,256.904l5.493,0l0,5.494l-5.493,0l0,-5.494l0,0Z" style="fill:none;stroke-width:1px;stroke:#9c9;"/><rect x="409.39" y="267.891" width="5.494" height="5.494" style="fill:none;stroke-width:1px;stroke:#9c9;"/><g><path d="M522.007,100.339l38.454,0l0,5.494l-38.454,0l0,-5.494l0,0Z" style="fill:none;stroke-width:1px;stroke:#a09f93;"/><rect x="511.02" y="100.339" width="5.494" height="5.494" style="fill:none;stroke-width:1px;stroke:#a09f93;"/></g><rect x="497.286" y="111.326" width="5.494" height="5.494" style="fill:none;stroke-width:1px;stroke:#393939;"/><path d="M423.124,111.326l49.442,0l0,5.494l-49.442,0l0,-5.494l0,0Z" style="fill:none;stroke-width:1px;stroke:#a09f93;"/><rect x="598.916" y="111.326" width="38.454" height="5.494" style="fill:none;stroke-width:1px;stroke:#a09f93;"/><rect x="686.812" y="111.326" width="54.935" height="5.494" style="fill:none;stroke-width:1px;stroke:#a09f93;"/><rect x="758.227" y="111.326" width="5.494" height="5.494" style="fill:none;stroke-width:1px;stroke:#515151;"/><path d="M310.507,114.073c1.517,0 2.747,1.23 2.747,2.747c0,1.517 -1.23,2.747 -2.747,2.747c-1.517,0 -2.747,-1.23 -2.747,-2.747c0,-1.517 1.23,-2.747 2.747,-2.747Z" style="fill:none;stroke-width:1px;stroke:#f99157;"/><path d="M321.494,125.06c1.517,0 2.747,1.23 2.747,2.747c0,1.517 -1.23,2.747 -2.747,2.747c-1.517,0 -2.747,-1.23 -2.747,-2.747c0,-1.517 1.23,-2.747 2.747,-2.747Z" style="fill:none;stroke-width:1px;stroke:#f99157;"/><path d="M321.494,136.047c1.517,0 2.747,1.23 2.747,2.747c0,1.517 -1.23,2.747 -2.747,2.747c-1.517,0 -2.747,-1.23 -2.747,-2.747c0,-1.517 1.23,-2.747 2.747,-2.747Z" style="fill:none;stroke-width:1px;stroke:#f99157;"/><path d="M321.494,147.034c1.517,0 2.747,1.23 2.747,2.747c0,1.517 -1.23,2.747 -2.747,2.747c-1.517,0 -2.747,-1.23 -2.747,-2.747c0,-1.517 1.23,-2.747 2.747,-2.747Z" style="fill:none;stroke-width:1px;stroke:#f99157;"/><path d="M332.481,158.021c1.517,0 2.747,1.23 2.747,2.747c0,1.517 -1.23,2.747 -2.747,2.747c-1.517,0 -2.747,-1.23 -2.747,-2.747c0,-1.517 1.23,-2.747 2.747,-2.747Z" style="fill:none;stroke-width:1px;stroke:#f99157;"/><path d="M332.481,169.008c1.517,0 2.747,1.23 2.747,2.747c0,1.517 -1.23,2.747 -2.747,2.747c-1.517,0 -2.747,-1.23 -2.747,-2.747c0,-1.517 1.23,-2.747 2.747,-2.747Z" style="fill:none;stroke-width:1px;stroke:#f99157;"/><path d="M332.481,179.995c1.517,0 2.747,1.23 2.747,2.747c0,1.517 -1.23,2.747 -2.747,2.747c-1.517,0 -2.747,-1.23 -2.747,-2.747c0,-1.517 1.23,-2.747 2.747,-2.747Z" style="fill:none;stroke-width:1px;stroke:#f99157;"/><path d="M332.481,190.982c1.517,0 2.747,1.23 2.747,2.747c0,1.517 -1.23,2.747 -2.747,2.747c-1.517,0 -2.747,-1.23 -2.747,-2.747c0,-1.517 1.23,-2.747 2.747,-2.747Z" style="fill:none;stroke-width:1px;stroke:#f99157;"/><path d="M321.494,245.917c1.517,0 2.747,1.23 2.747,2.747c0,1.517 -1.23,2.747 -2.747,2.747c-1.517,0 -2.747,-1.23 -2.747,-2.747c0,-1.517 1.23,-2.747 2.747,-2.747Z" style="fill:none;stroke-width:1px;stroke:#f99157;"/><path d="M321.494,256.904c1.517,0 2.747,1.23 2.747,2.747c0,1.517 -1.23,2.747 -2.747,2.747c-1.517,0 -2.747,-1.23 -2.747,-2.747c0,-1.517 1.23,-2.747 2.747,-2.747Z" style="fill:none;stroke-width:1px;stroke:#f99157;"/><path d="M321.494,267.891c1.517,0 2.747,1.23 2.747,2.747c0,1.517 -1.23,2.747 -2.747,2.747c-1.517,0 -2.747,-1.23 -2.747,-2.747c0,-1.517 1.23,-2.747 2.747,-2.747Z" style="fill:none;stroke-width:1px;stroke:#f99157;"/><path d="M321.494,278.878c1.517,0 2.747,1.23 2.747,2.747c0,1.517 -1.23,2.747 -2.747,2.747c-1.517,0 -2.747,-1.23 -2.747,-2.747c0,-1.517 1.23,-2.747 2.747,-2.747Z" style="fill:none;stroke-width:1px;stroke:#f99157;"/><path d="M302.267,100.339c1.517,0 2.747,1.23 2.747,2.747c0,1.517 -1.23,2.747 -2.747,2.747c-1.517,0 -2.747,-1.23 -2.747,-2.747c0,-1.517 1.23,-2.747 2.747,-2.747Z" style="fill:none;stroke-width:2px;stroke:#f2777a;"/><path d="M310.507,100.339c1.517,0 2.747,1.23 2.747,2.747c0,1.517 -1.23,2.747 -2.747,2.747c-1.517,0 -2.747,-1.23 -2.747,-2.747c0,-1.517 1.23,-2.747 2.747,-2.747Z" style="fill:none;stroke-width:2px;stroke:#fc6;"/><path d="M318.747,100.339c1.517,0 2.747,1.23 2.747,2.747c0,1.517 -1.23,2.747 -2.747,2.747c-1.517,0 -2.746,-1.23 -2.746,-2.747c0,-1.517 1.229,-2.747 2.746,-2.747Z" style="fill:none;stroke-width:2px;stroke:#9c9;"/></g></g></svg>