<?xml version="1.0" standalone="no"?><!DOCTYPE svg PUBLIC "-//W3C//DTD SVG 1.1//EN" "http://www.w3.org/Graphics/SVG/1.1/DTD/svg11.dtd"><svg width="100%" height="100%" viewBox="0 0 1068 1129" version="1.1" xmlns="http://www.w3.org/2000/svg" xmlns:xlink="http://www.w3.org/1999/xlink" xml:space="preserve" style="fill-rule:evenodd;clip-rule:evenodd;stroke-linejoin:round;stroke-miterlimit:1.41421;"><g id="Layer1"><g><rect x="298.202" y="541.292" width="472.441" height="34.646" style="fill:none;stroke-width:3px;stroke:#393939;"/><rect x="51.245" y="43.654" width="966.356" height="23.622" style="fill:none;stroke-width:3px;stroke:#393939;"/><path d="M996.34,48.958c3.261,0 5.905,2.644 5.905,5.905c0,3.262 -2.644,5.906 -5.905,5.906c-3.262,0 -5.906,-2.644 -5.906,-5.906c0,-3.261 2.644,-5.905 5.906,-5.905Z" style="fill:none;stroke-width:1px;stroke:#d3d0c9;"/><path d="M978.623,48.958c3.262,0 5.906,2.644 5.906,5.905c0,3.262 -2.644,5.906 -5.906,5.906c-3.261,0 -5.905,-2.644 -5.905,-5.906c0,-3.261 2.644,-5.905 5.905,-5.905Z" style="fill:none;stroke-width:1px;stroke:#d3d0c9;"/><path d="M919.568,48.958c3.262,0 5.906,2.644 5.906,5.905c0,3.262 -2.644,5.906 -5.906,5.906c-3.261,0 -5.905,-2.644 -5.905,-5.906c0,-3.261 2.644,-5.905 5.905,-5.905Z" style="fill:none;stroke-width:1px;stroke:#d3d0c9;"/><path d="M901.852,48.958c3.261,0 5.905,2.644 5.905,5.905c0,3.262 -2.644,5.906 -5.905,5.906c-3.262,0 -5.906,-2.644 -5.906,-5.906c0,-3.261 2.644,-5.905 5.906,-5.905Z" style="fill:none;stroke-width:1px;stroke:#d3d0c9;"/><path d="M884.135,48.958c3.261,0 5.905,2.644 5.905,5.905c0,3.262 -2.644,5.906 -5.905,5.906c-3.262,0 -5.906,-2.644 -5.906,-5.906c0,-3.261 2.644,-5.905 5.906,-5.905Z" style="fill:none;stroke-width:1px;stroke:#d3d0c9;"/><path d="M866.419,48.958c3.261,0 5.905,2.644 5.905,5.905c0,3.262 -2.644,5.906 -5.905,5.906c-3.262,0 -5.906,-2.644 -5.906,-5.906c0,-3.261 2.644,-5.905 5.906,-5.905Z" style="fill:none;stroke-width:1px;stroke:#d3d0c9;"/><rect x="931.4" y="48.958" width="35.433" height="11.811" style="fill:none;stroke-width:1px;stroke:#d3d0c9;"/><path d="M86.893,50.137l70.866,0l0,11.811l-70.866,0l0,-11.811l0,0Z" style="fill:none;stroke-width:1px;stroke:#d3d0c9;"/><path d="M169.571,50.137l35.433,0l0,11.811l-35.433,0l0,-11.811l0,0Z" style="fill:none;stroke-width:1px;stroke:#d3d0c9;"/><path d="M215.635,50.137l24.803,0l0,11.811l-24.803,0l0,-11.811l0,0Z" style="fill:none;stroke-width:1px;stroke:#d3d0c9;"/><path d="M251.656,50.137l36.024,0l0,11.811l-36.024,0l0,-11.811l0,0Z" style="fill:none;stroke-width:1px;stroke:#d3d0c9;"/><path d="M299.499,50.137l47.244,0l0,11.811l-47.244,0l0,-11.811l0,0Z" style="fill:none;stroke-width:1px;stroke:#d3d0c9;"/><path d="M323.12,546.811c6.523,0 11.811,5.288 11.811,11.811c0,6.523 -5.288,11.811 -11.811,11.811c-6.523,0 -11.811,-5.288 -11.811,-11.811c0,-6.524 5.288,-11.811 11.811,-11.811Z" style="fill:none;stroke-width:2px;stroke:#6cc;"/><path d="M358.553,546.811c6.523,0 11.811,5.288 11.811,11.811c0,6.523 -5.288,11.811 -11.811,11.811c-6.523,0 -11.811,-5.288 -11.811,-11.811c0,-6.524 5.288,-11.811 11.811,-11.811Z" style="fill:none;stroke-width:2px;stroke:#a09f93;"/><path d="M393.879,546.811c6.523,0 11.811,5.288 11.811,11.811c0,6.523 -5.288,11.811 -11.811,11.811c-6.524,0 -11.811,-5.288 -11.811,-11.811c0,-6.524 5.288,-11.811 11.811,-11.811Z" style="fill:none;stroke-width:2px;stroke:#f2777a;"/><path d="M429.419,546.811c6.523,0 11.811,5.288 11.811,11.811c0,6.523 -5.288,11.811 -11.811,11.811c-6.523,0 -11.811,-5.288 -11.811,-11.811c0,-6.524 5.288,-11.811 11.811,-11.811Z" style="fill:none;stroke-width:2px;stroke:#6cc;"/><path d="M464.96,546.811c6.523,0 11.811,5.288 11.811,11.811c0,6.523 -5.288,11.811 -11.811,11.811c-6.523,0 -11.811,-5.288 -11.811,-11.811c0,-6.524 5.288,-11.811 11.811,-11.811Z" style="fill:none;stroke-width:2px;stroke:#6cc;"/><path d="M500.393,546.811c6.523,0 11.811,5.288 11.811,11.811c0,6.523 -5.288,11.811 -11.811,11.811c-6.523,0 -11.811,-5.288 -11.811,-11.811c0,-6.524 5.288,-11.811 11.811,-11.811Z" style="fill:none;stroke-width:2px;stroke:#6cc;"/><path d="M535.718,546.811c6.523,0 11.811,5.288 11.811,11.811c0,6.523 -5.288,11.811 -11.811,11.811c-6.523,0 -11.811,-5.288 -11.811,-11.811c0,-6.524 5.288,-11.811 11.811,-11.811Z" style="fill:none;stroke-width:2px;stroke:#f99157;"/><path d="M571.151,546.811c6.523,0 11.811,5.288 11.811,11.811c0,6.523 -5.288,11.811 -11.811,11.811c-6.523,0 -11.811,-5.288 -11.811,-11.811c0,-6.524 5.288,-11.811 11.811,-11.811Z" style="fill:none;stroke-width:2px;stroke:#6cc;"/><path d="M606.585,546.811c6.523,0 11.811,5.288 11.811,11.811c0,6.523 -5.288,11.811 -11.811,11.811c-6.523,0 -11.811,-5.288 -11.811,-11.811c0,-6.524 5.288,-11.811 11.811,-11.811Z" style="fill:none;stroke-width:2px;stroke:#f99157;"/><path d="M642.018,546.811c6.523,0 11.811,5.288 11.811,11.811c0,6.523 -5.288,11.811 -11.811,11.811c-6.523,0 -11.811,-5.288 -11.811,-11.811c0,-6.524 5.288,-11.811 11.811,-11.811Z" style="fill:none;stroke-width:2px;stroke:#c9c;"/><path d="M677.451,546.811c6.523,0 11.811,5.288 11.811,11.811c0,6.523 -5.288,11.811 -11.811,11.811c-6.523,0 -11.811,-5.288 -11.811,-11.811c0,-6.524 5.288,-11.811 11.811,-11.811Z" style="fill:none;stroke-width:2px;stroke:#9c9;"/><path d="M712.884,546.811c6.523,0 11.811,5.288 11.811,11.811c0,6.523 -5.288,11.811 -11.811,11.811c-6.523,0 -11.811,-5.288 -11.811,-11.811c0,-6.524 5.288,-11.811 11.811,-11.811Z" style="fill:none;stroke-width:2px;stroke:#6cc;"/><path d="M748.317,546.811c6.523,0 11.811,5.288 11.811,11.811c0,6.523 -5.288,11.811 -11.811,11.811c-6.523,0 -11.811,-5.288 -11.811,-11.811c0,-6.524 5.288,-11.811 11.811,-11.811Z" style="fill:none;stroke-width:2px;stroke:#a09f93;"/><path d="M464.852,546.811c6.523,0 11.811,5.288 11.811,11.811c0,6.523 -5.288,11.811 -11.811,11.811c-6.523,0 -11.811,-5.288 -11.811,-11.811c0,-6.524 5.288,-11.811 11.811,-11.811Z" style="fill:none;stroke-width:1px;stroke:#c9c;"/><path d="M69.18,50.139c3.261,0 5.905,2.644 5.905,5.905c0,3.262 -2.644,5.906 -5.905,5.906c-3.262,0 -5.906,-2.644 -5.906,-5.906c0,-3.261 2.644,-5.905 5.906,-5.905Z" style="fill:none;stroke-width:1px;stroke:#d3d0c9;"/><rect x="949.1" y="80.668" width="47.244" height="47.244" style="fill:none;stroke-width:3px;stroke:#a09f93;"/><rect x="949.1" y="139.723" width="47.244" height="47.244" style="fill:none;stroke-width:3px;stroke:#a09f93;"/><rect x="949.1" y="198.778" width="47.244" height="47.244" style="fill:none;stroke-width:3px;stroke:#a09f93;"/></g><g><path d="M711.584,835.783c0,-3.262 -2.644,-5.906 -5.906,-5.906l-342.519,0c-3.262,0 -5.906,2.644 -5.906,5.906l0,11.811c0,3.261 2.644,5.905 5.906,5.905l342.519,0c3.262,0 5.906,-2.644 5.906,-5.905l0,-11.811Z" style="fill:none;stroke-width:3px;stroke:#f2f0ec;"/><path d="M645.781,830.296l-223.788,0l17.903,-141.732l187.982,0l17.903,141.732ZM1065.92,620.265l-1062.99,0l0,35.658c0,17.786 14.418,32.205 32.204,32.205l998.586,0c17.786,0 32.205,-14.419 32.205,-32.205l-0.001,-35.658Z" style="fill:none;stroke-width:2.86px;stroke:#f2f0ec;"/><path d="M1065.92,35.068c0,-17.65 -14.308,-31.959 -31.958,-31.959l-999.078,0c-17.65,0 -31.958,14.309 -31.958,31.959l0,582.215l1062.99,0l0,-582.215l0,0Z" style="fill:none;stroke-width:3px;stroke:#2d2d2d;"/><rect x="51.242" y="44.05" width="966.356" height="532.283" style="fill:none;stroke-width:3px;stroke:#2d2d2d;"/></g><g><g><path d="M709.614,920.584l-508.464,0l0,185.138c0,5.381 4.363,9.744 9.744,9.744l488.977,0c5.381,0 9.744,-4.363 9.744,-9.744l0,-185.138l-0.001,0Z" style="fill:none;stroke-width:3px;stroke:#d3d0c9;"/><g id="keys"><rect x="213.552" y="944.209" width="23.622" height="11.811" style="fill:none;stroke-width:1px;stroke:#f2f0ec;"/><rect x="248.985" y="944.209" width="23.622" height="11.811" style="fill:none;stroke-width:1px;stroke:#f2f0ec;"/><rect x="284.418" y="944.209" width="23.622" height="11.811" style="fill:none;stroke-width:1px;stroke:#f2f0ec;"/><rect x="319.851" y="944.209" width="23.622" height="11.811" style="fill:none;stroke-width:1px;stroke:#f2f0ec;"/><rect x="355.284" y="944.209" width="23.622" height="11.811" style="fill:none;stroke-width:1px;stroke:#f2f0ec;"/><rect x="390.717" y="944.209" width="23.622" height="11.811" style="fill:none;stroke-width:1px;stroke:#f2f0ec;"/><rect x="426.15" y="944.209" width="23.622" height="11.811" style="fill:none;stroke-width:1px;stroke:#f2f0ec;"/><rect x="461.583" y="944.209" width="23.622" height="11.811" style="fill:none;stroke-width:1px;stroke:#f2f0ec;"/><rect x="497.017" y="944.209" width="23.622" height="11.811" style="fill:none;stroke-width:1px;stroke:#f2f0ec;"/><rect x="532.45" y="944.209" width="23.622" height="11.811" style="fill:none;stroke-width:1px;stroke:#f2f0ec;"/><rect x="567.883" y="944.209" width="23.622" height="11.811" style="fill:none;stroke-width:1px;stroke:#f2f0ec;"/><rect x="603.316" y="944.209" width="23.622" height="11.811" style="fill:none;stroke-width:1px;stroke:#f2f0ec;"/><rect x="638.749" y="944.209" width="23.622" height="11.811" style="fill:none;stroke-width:1px;stroke:#f2f0ec;"/><rect x="674.182" y="944.209" width="23.622" height="11.811" style="fill:none;stroke-width:1px;stroke:#f2f0ec;"/><rect x="213.552" y="961.93" width="23.622" height="23.622" style="fill:none;stroke-width:1px;stroke:#f2f0ec;"/><rect x="213.552" y="1080.04" width="23.622" height="23.622" style="fill:none;stroke-width:1px;stroke:#f2f0ec;"/><rect x="245.048" y="1080.04" width="23.622" height="23.622" style="fill:none;stroke-width:1px;stroke:#f2f0ec;"/><rect x="276.544" y="1080.04" width="23.622" height="23.622" style="fill:none;stroke-width:1px;stroke:#f2f0ec;"/><rect x="247.263" y="961.93" width="23.622" height="23.622" style="fill:none;stroke-width:1px;stroke:#f2f0ec;"/><rect x="280.973" y="961.93" width="23.622" height="23.622" style="fill:none;stroke-width:1px;stroke:#f2f0ec;"/><rect x="314.684" y="961.93" width="23.622" height="23.622" style="fill:none;stroke-width:1px;stroke:#f2f0ec;"/><rect x="348.394" y="961.93" width="23.622" height="23.622" style="fill:none;stroke-width:1px;stroke:#f2f0ec;"/><rect x="382.105" y="961.93" width="23.622" height="23.622" style="fill:none;stroke-width:1px;stroke:#f2f0ec;"/><rect x="415.816" y="961.93" width="23.622" height="23.622" style="fill:none;stroke-width:1px;stroke:#f2f0ec;"/><rect x="449.526" y="961.93" width="23.622" height="23.622" style="fill:none;stroke-width:1px;stroke:#f2f0ec;"/><rect x="483.237" y="961.93" width="23.622" height="23.622" style="fill:none;stroke-width:1px;stroke:#f2f0ec;"/><rect x="516.948" y="961.93" width="23.622" height="23.622" style="fill:none;stroke-width:1px;stroke:#f2f0ec;"/><rect x="550.658" y="961.93" width="23.622" height="23.622" style="fill:none;stroke-width:1px;stroke:#f2f0ec;"/><rect x="584.369" y="961.93" width="23.622" height="23.622" style="fill:none;stroke-width:1px;stroke:#f2f0ec;"/><rect x="618.08" y="961.93" width="23.622" height="23.622" style="fill:none;stroke-width:1px;stroke:#f2f0ec;"/><rect x="650.56" y="961.93" width="46.949" height="23.622" style="fill:none;stroke-width:1px;stroke:#f2f0ec;"/><rect x="308.04" y="1080.04" width="42.963" height="23.622" style="fill:none;stroke-width:1px;stroke:#f2f0ec;"/><rect x="577.38" y="1080.04" width="23.622" height="23.622" style="fill:none;stroke-width:1px;stroke:#f2f0ec;"/><rect x="526.538" y="1080.04" width="42.963" height="23.622" style="fill:none;stroke-width:1px;stroke:#f2f0ec;"/><rect x="670.635" y="1093.03" width="27.165" height="10.63" style="fill:none;stroke-width:1px;stroke:#f2f0ec;"/><rect x="638.37" y="1093.03" width="27.165" height="10.63" style="fill:none;stroke-width:1px;stroke:#f2f0ec;"/><rect x="638.37" y="1080.04" width="27.165" height="10.63" style="fill:none;stroke-width:1px;stroke:#f2f0ec;"/><rect x="606.103" y="1093.03" width="27.165" height="10.63" style="fill:none;stroke-width:1px;stroke:#f2f0ec;"/><rect x="674.181" y="991.458" width="23.622" height="23.622" style="fill:none;stroke-width:1px;stroke:#f2f0ec;"/><rect x="640.027" y="991.458" width="23.622" height="23.622" style="fill:none;stroke-width:1px;stroke:#f2f0ec;"/><rect x="606.317" y="991.458" width="23.622" height="23.622" style="fill:none;stroke-width:1px;stroke:#f2f0ec;"/><rect x="572.606" y="991.458" width="23.622" height="23.622" style="fill:none;stroke-width:1px;stroke:#f2f0ec;"/><rect x="538.896" y="991.458" width="23.622" height="23.622" style="fill:none;stroke-width:1px;stroke:#f2f0ec;"/><rect x="505.185" y="991.458" width="23.622" height="23.622" style="fill:none;stroke-width:1px;stroke:#f2f0ec;"/><rect x="471.474" y="991.458" width="23.622" height="23.622" style="fill:none;stroke-width:1px;stroke:#f2f0ec;"/><rect x="437.764" y="991.458" width="23.622" height="23.622" style="fill:none;stroke-width:1px;stroke:#f2f0ec;"/><rect x="404.053" y="991.458" width="23.622" height="23.622" style="fill:none;stroke-width:1px;stroke:#f2f0ec;"/><rect x="370.342" y="991.458" width="23.622" height="23.622" style="fill:none;stroke-width:1px;stroke:#f2f0ec;"/><rect x="336.632" y="991.458" width="23.622" height="23.622" style="fill:none;stroke-width:1px;stroke:#f2f0ec;"/><rect x="302.921" y="991.458" width="23.622" height="23.622" style="fill:none;stroke-width:1px;stroke:#f2f0ec;"/><rect x="269.211" y="991.458" width="23.622" height="23.622" style="fill:none;stroke-width:1px;stroke:#f2f0ec;"/><rect x="213.55" y="991.458" width="46.949" height="23.622" style="fill:none;stroke-width:1px;stroke:#f2f0ec;"/><rect x="644.654" y="1020.99" width="53.15" height="23.622" style="fill:none;stroke-width:1px;stroke:#f2f0ec;"/><rect x="213.551" y="1020.99" width="53.15" height="23.622" style="fill:none;stroke-width:1px;stroke:#f2f0ec;"/><rect x="611.189" y="1020.99" width="23.622" height="23.622" style="fill:none;stroke-width:1px;stroke:#f2f0ec;"/><rect x="577.724" y="1020.99" width="23.622" height="23.622" style="fill:none;stroke-width:1px;stroke:#f2f0ec;"/><rect x="544.26" y="1020.99" width="23.622" height="23.622" style="fill:none;stroke-width:1px;stroke:#f2f0ec;"/><rect x="510.795" y="1020.99" width="23.622" height="23.622" style="fill:none;stroke-width:1px;stroke:#f2f0ec;"/><rect x="477.331" y="1020.99" width="23.622" height="23.622" style="fill:none;stroke-width:1px;stroke:#f2f0ec;"/><rect x="443.866" y="1020.99" width="23.622" height="23.622" style="fill:none;stroke-width:1px;stroke:#f2f0ec;"/><rect x="410.401" y="1020.99" width="23.622" height="23.622" style="fill:none;stroke-width:1px;stroke:#f2f0ec;"/><rect x="376.937" y="1020.99" width="23.622" height="23.622" style="fill:none;stroke-width:1px;stroke:#f2f0ec;"/><rect x="343.472" y="1020.99" width="23.622" height="23.622" style="fill:none;stroke-width:1px;stroke:#f2f0ec;"/><rect x="310.008" y="1020.99" width="23.622" height="23.622" style="fill:none;stroke-width:1px;stroke:#f2f0ec;"/><rect x="276.543" y="1020.99" width="23.622" height="23.622" style="fill:none;stroke-width:1px;stroke:#f2f0ec;"/><rect x="626.935" y="1050.99" width="70.866" height="23.622" style="fill:none;stroke-width:1px;stroke:#f2f0ec;"/><rect x="213.555" y="1050.51" width="70.866" height="23.622" style="fill:none;stroke-width:1px;stroke:#f2f0ec;"/><rect x="593.651" y="1050.99" width="23.622" height="23.622" style="fill:none;stroke-width:1px;stroke:#f2f0ec;"/><rect x="560.366" y="1050.99" width="23.622" height="23.622" style="fill:none;stroke-width:1px;stroke:#f2f0ec;"/><rect x="527.08" y="1050.99" width="23.622" height="23.622" style="fill:none;stroke-width:1px;stroke:#f2f0ec;"/><rect x="493.794" y="1050.99" width="23.622" height="23.622" style="fill:none;stroke-width:1px;stroke:#f2f0ec;"/><rect x="460.509" y="1050.99" width="23.622" height="23.622" style="fill:none;stroke-width:1px;stroke:#f2f0ec;"/><rect x="427.223" y="1050.99" width="23.622" height="23.622" style="fill:none;stroke-width:1px;stroke:#f2f0ec;"/><rect x="393.938" y="1050.99" width="23.622" height="23.622" style="fill:none;stroke-width:1px;stroke:#f2f0ec;"/><rect x="360.652" y="1050.99" width="23.622" height="23.622" style="fill:none;stroke-width:1px;stroke:#f2f0ec;"/><rect x="327.366" y="1050.99" width="23.622" height="23.622" style="fill:none;stroke-width:1px;stroke:#f2f0ec;"/><rect x="360.649" y="1080.04" width="156.77" height="23.622" style="fill:none;stroke-width:1px;stroke:#f2f0ec;"/><rect x="294.081" y="1050.99" width="23.622" height="23.622" style="fill:none;stroke-width:1px;stroke:#f2f0ec;"/></g></g><g><path d="M839.042,957.921c-5.194,-19.386 -25.121,-30.891 -44.508,-25.696l-17.551,4.703c-19.386,5.194 -30.891,25.121 -25.696,44.507l23.986,89.516c5.194,19.386 25.121,30.891 44.507,25.697l17.551,-4.703c19.387,-5.195 30.891,-25.121 25.697,-44.508l-23.986,-89.516Z" style="fill:none;stroke-width:3px;stroke:#f2f0ec;"/><path d="M819.938,1062.14c3.029,-0.812 6.169,1.084 7.013,4.234c0.844,3.151 -0.927,6.363 -3.956,7.174c-3.029,0.812 -6.169,-1.084 -7.013,-4.234c-0.844,-3.151 0.927,-6.363 3.956,-7.174Z" style="fill:none;stroke-width:3px;stroke:#d3d0c9;"/></g></g><g><rect x="306.343" y="105.827" width="453.303" height="10.542" style="fill:none;stroke-width:0.96px;stroke:#000;"/><rect x="590.974" y="116.369" width="84.335" height="10.542" style="fill:none;stroke-width:0.96px;stroke:#2d2d2d;"/><rect x="422.304" y="126.911" width="337.341" height="368.967" style="fill:none;stroke-width:0.96px;stroke:#2d2d2d;"/><path d="M496.097,353.562l26.355,0l0,5.271l-26.355,0l0,-5.271l0,0Z" style="fill:none;stroke-width:0.96px;stroke:#6cc;"/><rect x="411.762" y="126.911" width="10.542" height="368.967" style="fill:none;stroke-width:0.96px;stroke:#2d2d2d;"/><path d="M417.033,321.936c1.455,0 2.635,1.18 2.635,2.635c0,1.456 -1.18,2.636 -2.635,2.636c-1.456,0 -2.636,-1.18 -2.636,-2.636c0,-1.455 1.18,-2.635 2.636,-2.635Z" style="fill:none;stroke-width:0.96px;stroke:#f99157;"/><path d="M453.93,300.852l63.251,0l0,5.271l-63.251,0l0,-5.271l0,0Z" style="fill:none;stroke-width:0.96px;stroke:#f99157;"/><rect x="522.452" y="300.852" width="26.355" height="5.271" style="fill:none;stroke-width:0.96px;stroke:#6cc;"/><rect x="306.343" y="116.369" width="105.419" height="379.509" style="fill:none;stroke-width:0.96px;stroke:#2d2d2d;"/><rect x="327.426" y="121.64" width="36.897" height="5.271" style="fill:none;stroke-width:0.96px;stroke:#a09f93;"/><path d="M337.968,132.182l63.252,0l0,5.271l-63.252,0l0,-5.271l0,0Z" style="fill:none;stroke-width:0.96px;stroke:#a09f93;"/><path d="M337.968,142.736l53.26,0l0,5.271l-53.26,0l0,-5.271l0,0Z" style="fill:none;stroke-width:0.86px;stroke:#a09f93;"/><rect x="506.015" y="116.369" width="84.335" height="10.542" style="fill:none;stroke-width:0.96px;stroke:#2d2d2d;"/><rect x="580.432" y="119.004" width="5.271" height="5.271" style="fill:none;stroke-width:0.96px;stroke:#515151;"/><rect x="664.768" y="119.004" width="5.271" height="5.271" style="fill:none;stroke-width:0.96px;stroke:#515151;"/><path d="M453.93,184.891l47.438,0l0,5.271l-47.438,0l0,-5.271l0,0Z" style="fill:none;stroke-width:0.96px;stroke:#f99157;"/><path d="M453.93,195.433l57.98,0l0,5.271l-57.98,0l0,-5.271l0,0Z" style="fill:none;stroke-width:0.96px;stroke:#f99157;"/><path d="M453.93,205.975l47.438,0l0,5.271l-47.438,0l0,-5.271l0,0Z" style="fill:none;stroke-width:0.96px;stroke:#f99157;"/><path d="M453.93,216.517l63.251,0l0,5.271l-63.251,0l0,-5.271l0,0Z" style="fill:none;stroke-width:0.96px;stroke:#f99157;"/><rect x="506.639" y="205.975" width="26.355" height="5.271" style="fill:none;stroke-width:0.96px;stroke:#6cc;"/><rect x="522.452" y="216.517" width="26.355" height="5.271" style="fill:none;stroke-width:0.96px;stroke:#6cc;"/><path d="M506.639,184.891l47.439,0l0,5.271l-47.439,0l0,-5.271l0,0Z" style="fill:none;stroke-width:0.96px;stroke:#a09f93;"/><path d="M517.181,195.433l57.981,0l0,5.271l-57.981,0l0,-5.271l0,0Z" style="fill:none;stroke-width:0.96px;stroke:#a09f93;"/><path d="M443.387,237.6l36.897,0l0,5.271l-36.897,0l0,-5.271l0,0Z" style="fill:none;stroke-width:0.96px;stroke:#f2777a;"/><path d="M443.477,174.338l36.897,0l0,5.271l-36.897,0l0,-5.271l0,0Z" style="fill:none;stroke-width:0.96px;stroke:#f2777a;"/><path d="M443.387,321.936l36.897,0l0,5.271l-36.897,0l0,-5.271l0,0Z" style="fill:none;stroke-width:0.96px;stroke:#f2777a;"/><path d="M485.555,321.936l21.084,0l0,5.271l-21.084,0l0,-5.271l0,0Z" style="fill:none;stroke-width:0.96px;stroke:#c9c;"/><path d="M443.388,248.142l47.438,0l0,5.271l-47.438,0l0,-5.271l0,0Z" style="fill:none;stroke-width:0.96px;stroke:#f2777a;"/><path d="M453.93,258.685l47.438,0l0,5.271l-47.438,0l0,-5.271l0,0Z" style="fill:none;stroke-width:0.96px;stroke:#f99157;"/><path d="M453.93,269.227l57.98,0l0,5.271l-57.98,0l0,-5.271l0,0Z" style="fill:none;stroke-width:0.96px;stroke:#f99157;"/><path d="M453.929,290.31l36.897,0l0,5.271l-36.897,0l0,-5.271l0,0Z" style="fill:none;stroke-width:0.96px;stroke:#f99157;"/><path d="M496.097,290.31l21.084,0l0,5.271l-21.084,0l0,-5.271l0,0Z" style="fill:none;stroke-width:0.96px;stroke:#6cc;"/><path d="M506.639,258.685l47.439,0l0,5.271l-47.439,0l0,-5.271l0,0Z" style="fill:none;stroke-width:0.96px;stroke:#a09f93;"/><rect x="517.181" y="269.227" width="42.168" height="5.271" style="fill:none;stroke-width:0.96px;stroke:#a09f93;"/><path d="M522.452,290.31l42.168,0l0,5.271l-42.168,0l0,-5.271l0,0Z" style="fill:none;stroke-width:0.96px;stroke:#a09f93;"/><path d="M453.929,279.768l36.897,0l0,5.271l-36.897,0l0,-5.271l0,0Z" style="fill:none;stroke-width:0.96px;stroke:#f99157;"/><path d="M453.929,332.478l31.626,0l0,5.271l-31.626,0l0,-5.271l0,0Z" style="fill:none;stroke-width:0.96px;stroke:#f99157;"/><path d="M453.93,343.02l57.98,0l0,5.271l-57.98,0l0,-5.271l0,0Z" style="fill:none;stroke-width:0.96px;stroke:#f99157;"/><rect x="490.826" y="332.478" width="31.626" height="5.271" style="fill:none;stroke-width:0.96px;stroke:#a09f93;"/><path d="M517.181,343.02l42.168,0l0,5.271l-42.168,0l0,-5.271l0,0Z" style="fill:none;stroke-width:0.96px;stroke:#a09f93;"/><path d="M453.929,353.562l36.897,0l0,5.271l-36.897,0l0,-5.271l0,0Z" style="fill:none;stroke-width:0.96px;stroke:#f99157;"/><path d="M453.93,364.104l57.98,0l0,5.271l-57.98,0l0,-5.271l0,0Z" style="fill:none;stroke-width:0.96px;stroke:#d3d0c9;"/><path d="M517.181,364.104l36.897,0l0,5.271l-36.897,0l0,-5.271l0,0Z" style="fill:none;stroke-width:0.96px;stroke:#d3d0c9;"/><path d="M453.93,374.646l63.251,0l0,5.27l-63.251,0l0,-5.27l0,0Z" style="fill:none;stroke-width:0.96px;stroke:#d3d0c9;"/><path d="M453.929,385.187l42.168,0l0,5.271l-42.168,0l0,-5.271l0,0Z" style="fill:none;stroke-width:0.96px;stroke:#d3d0c9;"/><path d="M522.452,374.646l36.897,0l0,5.27l-36.897,0l0,-5.27l0,0Z" style="fill:none;stroke-width:0.96px;stroke:#d3d0c9;"/><path d="M501.368,385.187l36.897,0l0,5.271l-36.897,0l0,-5.271l0,0Z" style="fill:none;stroke-width:0.96px;stroke:#d3d0c9;"/><path d="M496.097,279.768l47.439,0l0,5.271l-47.439,0l0,-5.271l0,0Z" style="fill:none;stroke-width:0.96px;stroke:#a09f93;"/><path d="M337.968,153.265l63.252,0l0,5.271l-63.331,0l0.079,-5.271l0,0Z" style="fill:none;stroke-width:0.96px;stroke:#a09f93;"/><path d="M348.51,163.807l47.439,0l0,5.271l-47.439,0l0,-5.271l0,0Z" style="fill:none;stroke-width:0.96px;stroke:#a09f93;"/><path d="M348.51,174.349l57.981,0l0,5.271l-57.981,0l0,-5.271l0,0Z" style="fill:none;stroke-width:0.96px;stroke:#a09f93;"/><path d="M348.511,184.891l52.709,0l0,5.271l-52.709,0l0,-5.271l0,0Z" style="fill:none;stroke-width:0.96px;stroke:#a09f93;"/><path d="M348.51,195.433l36.897,0l0,5.271l-36.897,0l0,-5.271l0,0Z" style="fill:none;stroke-width:0.96px;stroke:#a09f93;"/><path d="M337.968,248.142l63.252,0l0,5.271l-63.252,0l0,-5.271l0,0Z" style="fill:none;stroke-width:0.96px;stroke:#a09f93;"/><rect x="337.968" y="258.685" width="36.897" height="5.271" style="fill:none;stroke-width:0.96px;stroke:#a09f93;"/><path d="M337.968,269.227l52.71,0l0,5.271l-52.71,0l0,-5.271l0,0Z" style="fill:none;stroke-width:0.96px;stroke:#a09f93;"/><path d="M337.968,279.768l26.355,0l-0.04,5.271l-26.315,0l0,-5.271l0,0Z" style="fill:none;stroke-width:0.96px;stroke:#a09f93;"/><path d="M359.052,205.975l36.897,0l0,5.271l-36.897,0l0,-5.271l0,0Z" style="fill:none;stroke-width:0.96px;stroke:#a09f93;"/><path d="M511.91,119.004l36.897,0l0,5.271l-36.897,0l0,-5.271l0,0Z" style="fill:none;stroke-width:0.96px;stroke:#a09f93;"/><path d="M443.388,142.723l121.231,0l0,5.271l-121.231,0l0,-5.271l0,0Z" style="fill:none;stroke-width:0.96px;stroke:#d3d0c9;"/><rect x="443.388" y="153.265" width="57.981" height="5.271" style="fill:none;stroke-width:0.96px;stroke:#d3d0c9;"/><rect x="348.51" y="205.975" width="5.271" height="5.271" style="fill:none;stroke-width:0.96px;stroke:#515151;"/><path d="M359.052,216.517l47.439,0l0,5.271l-47.439,0l0,-5.271l0,0Z" style="fill:none;stroke-width:0.96px;stroke:#a09f93;"/><rect x="348.51" y="216.517" width="5.271" height="5.271" style="fill:none;stroke-width:0.96px;stroke:#515151;"/><rect x="411.761" y="116.369" width="10.542" height="10.542" style="fill:none;stroke-width:0.96px;stroke:#2d2d2d;"/><path d="M359.052,227.059l36.897,0l0,5.271l-36.897,0l0,-5.271l0,0Z" style="fill:none;stroke-width:0.96px;stroke:#a09f93;"/><rect x="348.51" y="227.059" width="5.271" height="5.271" style="fill:none;stroke-width:0.96px;stroke:#515151;"/><path d="M359.052,237.6l47.439,0l0,5.271l-47.439,0l0,-5.271l0,0Z" style="fill:none;stroke-width:0.96px;stroke:#a09f93;"/><rect x="348.51" y="237.6" width="5.271" height="5.271" style="fill:none;stroke-width:0.96px;stroke:#515151;"/><rect x="422.311" y="116.369" width="83.703" height="10.542" style="fill:none;stroke-width:0.96px;stroke:#2d2d2d;"/><rect x="675.309" y="116.369" width="84.335" height="10.542" style="fill:none;stroke-width:0.96px;stroke:#2d2d2d;"/><path d="M414.397,258.685l5.271,0l0,5.271l-5.271,0l0,-5.271l0,0Z" style="fill:none;stroke-width:0.96px;stroke:#9c9;"/><rect x="414.397" y="269.227" width="5.271" height="5.271" style="fill:none;stroke-width:0.96px;stroke:#9c9;"/><g><path d="M522.452,108.462l36.897,0l0,5.271l-36.897,0l0,-5.271l0,0Z" style="fill:none;stroke-width:0.96px;stroke:#a09f93;"/><rect x="511.91" y="108.462" width="5.271" height="5.271" style="fill:none;stroke-width:0.96px;stroke:#a09f93;"/></g><rect x="496.733" y="119.004" width="5.271" height="5.271" style="fill:none;stroke-width:0.96px;stroke:#515151;"/><path d="M427.575,119.004l47.439,0l0,5.271l-47.439,0l0,-5.271l0,0Z" style="fill:none;stroke-width:0.96px;stroke:#a09f93;"/><rect x="596.245" y="119.004" width="36.897" height="5.271" style="fill:none;stroke-width:0.96px;stroke:#a09f93;"/><rect x="680.581" y="119.004" width="52.71" height="5.271" style="fill:none;stroke-width:0.96px;stroke:#a09f93;"/><rect x="749.103" y="119.004" width="5.271" height="5.271" style="fill:none;stroke-width:0.96px;stroke:#515151;"/><path d="M319.52,121.64c1.456,0 2.635,1.18 2.635,2.635c0,1.456 -1.179,2.636 -2.635,2.636c-1.456,0 -2.635,-1.18 -2.635,-2.636c0,-1.455 1.179,-2.635 2.635,-2.635Z" style="fill:none;stroke-width:0.96px;stroke:#f99157;"/><path d="M330.062,132.181c1.455,0 2.635,1.18 2.635,2.636c0,1.455 -1.18,2.635 -2.635,2.635c-1.456,0 -2.636,-1.18 -2.636,-2.635c0,-1.456 1.18,-2.636 2.636,-2.636Z" style="fill:none;stroke-width:0.96px;stroke:#f99157;"/><path d="M330.062,142.723c1.455,0 2.635,1.18 2.635,2.636c0,1.455 -1.18,2.635 -2.635,2.635c-1.456,0 -2.636,-1.18 -2.636,-2.635c0,-1.456 1.18,-2.636 2.636,-2.636Z" style="fill:none;stroke-width:0.96px;stroke:#f99157;"/><path d="M330.062,153.265c1.455,0 2.635,1.18 2.635,2.636c0,1.455 -1.18,2.635 -2.635,2.635c-1.456,0 -2.636,-1.18 -2.636,-2.635c0,-1.456 1.18,-2.636 2.636,-2.636Z" style="fill:none;stroke-width:0.96px;stroke:#f99157;"/><path d="M340.604,163.807c1.455,0 2.635,1.18 2.635,2.636c0,1.455 -1.18,2.635 -2.635,2.635c-1.456,0 -2.636,-1.18 -2.636,-2.635c0,-1.456 1.18,-2.636 2.636,-2.636Z" style="fill:none;stroke-width:0.96px;stroke:#f99157;"/><path d="M340.604,174.349c1.455,0 2.635,1.18 2.635,2.636c0,1.455 -1.18,2.635 -2.635,2.635c-1.456,0 -2.636,-1.18 -2.636,-2.635c0,-1.456 1.18,-2.636 2.636,-2.636Z" style="fill:none;stroke-width:0.96px;stroke:#f99157;"/><path d="M340.604,184.891c1.455,0 2.635,1.18 2.635,2.635c0,1.456 -1.18,2.636 -2.635,2.636c-1.456,0 -2.636,-1.18 -2.636,-2.636c0,-1.455 1.18,-2.635 2.636,-2.635Z" style="fill:none;stroke-width:0.96px;stroke:#f99157;"/><path d="M340.604,195.433c1.455,0 2.635,1.18 2.635,2.635c0,1.456 -1.18,2.636 -2.635,2.636c-1.456,0 -2.636,-1.18 -2.636,-2.636c0,-1.455 1.18,-2.635 2.636,-2.635Z" style="fill:none;stroke-width:0.96px;stroke:#f99157;"/><path d="M330.062,248.143c1.455,0 2.635,1.18 2.635,2.635c0,1.456 -1.18,2.636 -2.635,2.636c-1.456,0 -2.636,-1.18 -2.636,-2.636c0,-1.455 1.18,-2.635 2.636,-2.635Z" style="fill:none;stroke-width:0.96px;stroke:#f99157;"/><path d="M330.062,258.685c1.455,0 2.635,1.18 2.635,2.635c0,1.456 -1.18,2.636 -2.635,2.636c-1.456,0 -2.636,-1.18 -2.636,-2.636c0,-1.455 1.18,-2.635 2.636,-2.635Z" style="fill:none;stroke-width:0.96px;stroke:#f99157;"/><path d="M330.062,269.227c1.455,0 2.635,1.179 2.635,2.635c0,1.456 -1.18,2.635 -2.635,2.635c-1.456,0 -2.636,-1.179 -2.636,-2.635c0,-1.456 1.18,-2.635 2.636,-2.635Z" style="fill:none;stroke-width:0.96px;stroke:#f99157;"/><path d="M330.062,279.768c1.455,0 2.635,1.18 2.635,2.636c0,1.455 -1.18,2.635 -2.635,2.635c-1.456,0 -2.636,-1.18 -2.636,-2.635c0,-1.456 1.18,-2.636 2.636,-2.636Z" style="fill:none;stroke-width:0.96px;stroke:#f99157;"/><path d="M311.614,108.462c1.455,0 2.635,1.18 2.635,2.636c0,1.455 -1.18,2.635 -2.635,2.635c-1.456,0 -2.636,-1.18 -2.636,-2.635c0,-1.456 1.18,-2.636 2.636,-2.636Z" style="fill:none;stroke-width:1.92px;stroke:#f2777a;"/><path d="M319.52,108.462c1.455,0 2.635,1.18 2.635,2.636c0,1.455 -1.18,2.635 -2.635,2.635c-1.456,0 -2.636,-1.18 -2.636,-2.635c0,-1.456 1.18,-2.636 2.636,-2.636Z" style="fill:none;stroke-width:1.92px;stroke:#fc6;"/><path d="M327.426,108.462c1.456,0 2.636,1.18 2.636,2.636c0,1.455 -1.18,2.635 -2.636,2.635c-1.455,0 -2.635,-1.18 -2.635,-2.635c0,-1.456 1.18,-2.636 2.635,-2.636Z" style="fill:none;stroke-width:1.92px;stroke:#9c9;"/></g></g></svg>