<?xml version="1.0" standalone="no"?><!DOCTYPE svg PUBLIC "-//W3C//DTD SVG 1.1//EN" "http://www.w3.org/Graphics/SVG/1.1/DTD/svg11.dtd"><svg width="100%" height="100%" viewBox="0 0 1068 1129" version="1.1" xmlns="http://www.w3.org/2000/svg" xmlns:xlink="http://www.w3.org/1999/xlink" xml:space="preserve" style="fill-rule:evenodd;clip-rule:evenodd;stroke-linejoin:round;stroke-miterlimit:1.41421;"><g id="Layer1"><g><path d="M711.534,835.733c0,-3.261 -2.644,-5.905 -5.905,-5.905l-342.52,0c-3.262,0 -5.906,2.644 -5.906,5.905l0,11.811c0,3.262 2.644,5.906 5.906,5.906l342.52,0c3.261,0 5.905,-2.644 5.905,-5.906l0,-11.811Z" style="fill:none;stroke-width:3px;stroke:#d3d0c9;"/><path d="M645.678,829.89l-223.734,0l17.903,-141.812l187.876,0l17.955,141.812ZM1065.87,620.216l-1063,0l0,35.658c0,17.786 14.418,32.204 32.205,32.204l998.585,0c17.786,0 32.205,-14.418 32.205,-32.204l0,-35.658Z" style="fill:none;stroke-width:2.86px;stroke:#d3d0c9;"/><path d="M1065.87,35.018c0,-17.65 -14.309,-31.959 -31.959,-31.959l-999.077,0c-17.651,0 -31.959,14.309 -31.959,31.959l0,582.215l1063,0l0,-582.215l0,0Z" style="fill:none;stroke-width:3px;stroke:#2d2d2d;"/><rect x="51.192" y="44" width="966.356" height="532.283" style="fill:none;stroke-width:3px;stroke:#2d2d2d;"/></g><g><g><path d="M709.614,920.584l-508.464,0l0,185.138c0,5.381 4.363,9.744 9.744,9.744l488.977,0c5.381,0 9.744,-4.363 9.744,-9.744l0,-185.138l-0.001,0Z" style="fill:none;stroke-width:3px;stroke:#d3d0c9;"/><g id="keys"><rect x="213.552" y="944.209" width="23.622" height="11.811" style="fill:none;stroke-width:1px;stroke:#f2f0ec;"/><rect x="248.985" y="944.209" width="23.622" height="11.811" style="fill:none;stroke-width:1px;stroke:#f2f0ec;"/><rect x="284.418" y="944.209" width="23.622" height="11.811" style="fill:none;stroke-width:1px;stroke:#f2f0ec;"/><rect x="319.851" y="944.209" width="23.622" height="11.811" style="fill:none;stroke-width:1px;stroke:#f2f0ec;"/><rect x="355.284" y="944.209" width="23.622" height="11.811" style="fill:none;stroke-width:1px;stroke:#f2f0ec;"/><rect x="390.717" y="944.209" width="23.622" height="11.811" style="fill:none;stroke-width:1px;stroke:#f2f0ec;"/><rect x="426.15" y="944.209" width="23.622" height="11.811" style="fill:none;stroke-width:1px;stroke:#f2f0ec;"/><rect x="461.583" y="944.209" width="23.622" height="11.811" style="fill:none;stroke-width:1px;stroke:#f2f0ec;"/><rect x="497.017" y="944.209" width="23.622" height="11.811" style="fill:none;stroke-width:1px;stroke:#f2f0ec;"/><rect x="532.45" y="944.209" width="23.622" height="11.811" style="fill:none;stroke-width:1px;stroke:#f2f0ec;"/><rect x="567.883" y="944.209" width="23.622" height="11.811" style="fill:none;stroke-width:1px;stroke:#f2f0ec;"/><rect x="603.316" y="944.209" width="23.622" height="11.811" style="fill:none;stroke-width:1px;stroke:#f2f0ec;"/><rect x="638.749" y="944.209" width="23.622" height="11.811" style="fill:none;stroke-width:1px;stroke:#f2f0ec;"/><rect x="674.182" y="944.209" width="23.622" height="11.811" style="fill:none;stroke-width:1px;stroke:#f2f0ec;"/><rect x="213.552" y="961.93" width="23.622" height="23.622" style="fill:none;stroke-width:1px;stroke:#f2f0ec;"/><rect x="213.552" y="1080.04" width="23.622" height="23.622" style="fill:none;stroke-width:1px;stroke:#f2f0ec;"/><rect x="245.048" y="1080.04" width="23.622" height="23.622" style="fill:none;stroke-width:1px;stroke:#f2f0ec;"/><rect x="276.544" y="1080.04" width="23.622" height="23.622" style="fill:none;stroke-width:1px;stroke:#f2f0ec;"/><rect x="247.263" y="961.93" width="23.622" height="23.622" style="fill:none;stroke-width:1px;stroke:#f2f0ec;"/><rect x="280.973" y="961.93" width="23.622" height="23.622" style="fill:none;stroke-width:1px;stroke:#f2f0ec;"/><rect x="314.684" y="961.93" width="23.622" height="23.622" style="fill:none;stroke-width:1px;stroke:#f2f0ec;"/><rect x="348.394" y="961.93" width="23.622" height="23.622" style="fill:none;stroke-width:1px;stroke:#f2f0ec;"/><rect x="382.105" y="961.93" width="23.622" height="23.622" style="fill:none;stroke-width:1px;stroke:#f2f0ec;"/><rect x="415.816" y="961.93" width="23.622" height="23.622" style="fill:none;stroke-width:1px;stroke:#f2f0ec;"/><rect x="449.526" y="961.93" width="23.622" height="23.622" style="fill:none;stroke-width:1px;stroke:#f2f0ec;"/><rect x="483.237" y="961.93" width="23.622" height="23.622" style="fill:none;stroke-width:1px;stroke:#f2f0ec;"/><rect x="516.948" y="961.93" width="23.622" height="23.622" style="fill:none;stroke-width:1px;stroke:#f2f0ec;"/><rect x="550.658" y="961.93" width="23.622" height="23.622" style="fill:none;stroke-width:1px;stroke:#f2f0ec;"/><rect x="584.369" y="961.93" width="23.622" height="23.622" style="fill:none;stroke-width:1px;stroke:#f2f0ec;"/><rect x="618.08" y="961.93" width="23.622" height="23.622" style="fill:none;stroke-width:1px;stroke:#f2f0ec;"/><rect x="650.56" y="961.93" width="46.949" height="23.622" style="fill:none;stroke-width:1px;stroke:#f2f0ec;"/><rect x="308.04" y="1080.04" width="42.963" height="23.622" style="fill:none;stroke-width:1px;stroke:#f2f0ec;"/><rect x="577.38" y="1080.04" width="23.622" height="23.622" style="fill:none;stroke-width:1px;stroke:#f2f0ec;"/><rect x="526.538" y="1080.04" width="42.963" height="23.622" style="fill:none;stroke-width:1px;stroke:#f2f0ec;"/><rect x="670.635" y="1093.03" width="27.165" height="10.63" style="fill:none;stroke-width:1px;stroke:#f2f0ec;"/><rect x="638.37" y="1093.03" width="27.165" height="10.63" style="fill:none;stroke-width:1px;stroke:#f2f0ec;"/><rect x="638.37" y="1080.04" width="27.165" height="10.63" style="fill:none;stroke-width:1px;stroke:#f2f0ec;"/><rect x="606.103" y="1093.03" width="27.165" height="10.63" style="fill:none;stroke-width:1px;stroke:#f2f0ec;"/><rect x="674.181" y="991.458" width="23.622" height="23.622" style="fill:none;stroke-width:1px;stroke:#f2f0ec;"/><rect x="640.027" y="991.458" width="23.622" height="23.622" style="fill:none;stroke-width:1px;stroke:#f2f0ec;"/><rect x="606.317" y="991.458" width="23.622" height="23.622" style="fill:none;stroke-width:1px;stroke:#f2f0ec;"/><rect x="572.606" y="991.458" width="23.622" height="23.622" style="fill:none;stroke-width:1px;stroke:#f2f0ec;"/><rect x="538.896" y="991.458" width="23.622" height="23.622" style="fill:none;stroke-width:1px;stroke:#f2f0ec;"/><rect x="505.185" y="991.458" width="23.622" height="23.622" style="fill:none;stroke-width:1px;stroke:#f2f0ec;"/><rect x="471.474" y="991.458" width="23.622" height="23.622" style="fill:none;stroke-width:1px;stroke:#f2f0ec;"/><rect x="437.764" y="991.458" width="23.622" height="23.622" style="fill:none;stroke-width:1px;stroke:#f2f0ec;"/><rect x="404.053" y="991.458" width="23.622" height="23.622" style="fill:none;stroke-width:1px;stroke:#f2f0ec;"/><rect x="370.342" y="991.458" width="23.622" height="23.622" style="fill:none;stroke-width:1px;stroke:#f2f0ec;"/><rect x="336.632" y="991.458" width="23.622" height="23.622" style="fill:none;stroke-width:1px;stroke:#f2f0ec;"/><rect x="302.921" y="991.458" width="23.622" height="23.622" style="fill:none;stroke-width:1px;stroke:#f2f0ec;"/><rect x="269.211" y="991.458" width="23.622" height="23.622" style="fill:none;stroke-width:1px;stroke:#f2f0ec;"/><rect x="213.55" y="991.458" width="46.949" height="23.622" style="fill:none;stroke-width:1px;stroke:#f2f0ec;"/><rect x="644.654" y="1020.99" width="53.15" height="23.622" style="fill:none;stroke-width:1px;stroke:#f2f0ec;"/><rect x="213.551" y="1020.99" width="53.15" height="23.622" style="fill:none;stroke-width:1px;stroke:#f2f0ec;"/><rect x="611.189" y="1020.99" width="23.622" height="23.622" style="fill:none;stroke-width:1px;stroke:#f2f0ec;"/><rect x="577.724" y="1020.99" width="23.622" height="23.622" style="fill:none;stroke-width:1px;stroke:#f2f0ec;"/><rect x="544.26" y="1020.99" width="23.622" height="23.622" style="fill:none;stroke-width:1px;stroke:#f2f0ec;"/><rect x="510.795" y="1020.99" width="23.622" height="23.622" style="fill:none;stroke-width:1px;stroke:#f2f0ec;"/><rect x="477.331" y="1020.99" width="23.622" height="23.622" style="fill:none;stroke-width:1px;stroke:#f2f0ec;"/><rect x="443.866" y="1020.99" width="23.622" height="23.622" style="fill:none;stroke-width:1px;stroke:#f2f0ec;"/><rect x="410.401" y="1020.99" width="23.622" height="23.622" style="fill:none;stroke-width:1px;stroke:#f2f0ec;"/><rect x="376.937" y="1020.99" width="23.622" height="23.622" style="fill:none;stroke-width:1px;stroke:#f2f0ec;"/><rect x="343.472" y="1020.99" width="23.622" height="23.622" style="fill:none;stroke-width:1px;stroke:#f2f0ec;"/><rect x="310.008" y="1020.99" width="23.622" height="23.622" style="fill:none;stroke-width:1px;stroke:#f2f0ec;"/><rect x="276.543" y="1020.99" width="23.622" height="23.622" style="fill:none;stroke-width:1px;stroke:#f2f0ec;"/><rect x="626.935" y="1050.99" width="70.866" height="23.622" style="fill:none;stroke-width:1px;stroke:#f2f0ec;"/><rect x="213.555" y="1050.51" width="70.866" height="23.622" style="fill:none;stroke-width:1px;stroke:#f2f0ec;"/><rect x="593.651" y="1050.99" width="23.622" height="23.622" style="fill:none;stroke-width:1px;stroke:#f2f0ec;"/><rect x="560.366" y="1050.99" width="23.622" height="23.622" style="fill:none;stroke-width:1px;stroke:#f2f0ec;"/><rect x="527.08" y="1050.99" width="23.622" height="23.622" style="fill:none;stroke-width:1px;stroke:#f2f0ec;"/><rect x="493.794" y="1050.99" width="23.622" height="23.622" style="fill:none;stroke-width:1px;stroke:#f2f0ec;"/><rect x="460.509" y="1050.99" width="23.622" height="23.622" style="fill:none;stroke-width:1px;stroke:#f2f0ec;"/><rect x="427.223" y="1050.99" width="23.622" height="23.622" style="fill:none;stroke-width:1px;stroke:#f2f0ec;"/><rect x="393.938" y="1050.99" width="23.622" height="23.622" style="fill:none;stroke-width:1px;stroke:#f2f0ec;"/><rect x="360.652" y="1050.99" width="23.622" height="23.622" style="fill:none;stroke-width:1px;stroke:#f2f0ec;"/><rect x="327.366" y="1050.99" width="23.622" height="23.622" style="fill:none;stroke-width:1px;stroke:#f2f0ec;"/><rect x="360.649" y="1080.04" width="156.77" height="23.622" style="fill:none;stroke-width:1px;stroke:#f2f0ec;"/><rect x="294.081" y="1050.99" width="23.622" height="23.622" style="fill:none;stroke-width:1px;stroke:#f2f0ec;"/></g></g><g><path d="M839.042,957.921c-5.194,-19.386 -25.121,-30.891 -44.508,-25.696l-17.551,4.703c-19.386,5.194 -30.891,25.121 -25.696,44.507l23.986,89.516c5.194,19.386 25.121,30.891 44.507,25.697l17.551,-4.703c19.387,-5.195 30.891,-25.121 25.697,-44.508l-23.986,-89.516Z" style="fill:none;stroke-width:3px;stroke:#d3d0c9;"/><path d="M819.938,1062.14c3.029,-0.812 6.169,1.084 7.013,4.234c0.844,3.151 -0.927,6.363 -3.956,7.174c-3.029,0.812 -6.169,-1.084 -7.013,-4.234c-0.844,-3.151 0.927,-6.363 3.956,-7.174Z" style="fill:none;stroke-width:3px;stroke:#d3d0c9;"/></g></g></g></svg>