<?xml version="1.0" standalone="no"?><!DOCTYPE svg PUBLIC "-//W3C//DTD SVG 1.1//EN" "http://www.w3.org/Graphics/SVG/1.1/DTD/svg11.dtd"><svg width="100%" height="100%" viewBox="0 0 504 433" version="1.1" xmlns="http://www.w3.org/2000/svg" xmlns:xlink="http://www.w3.org/1999/xlink" xml:space="preserve" style="fill-rule:evenodd;clip-rule:evenodd;stroke-linejoin:round;stroke-miterlimit:1.41421;"><g id="new editor"><rect x="0.861" y="0.037" width="503.024" height="11.698" style="fill:#e8e6db;"/><rect x="316.712" y="11.736" width="93.586" height="11.698" style="fill:#393939;"/><rect x="129.541" y="23.433" width="374.343" height="409.438" style="fill:#2d2d2d;"/><path d="M211.429,274.945l29.245,0l0,5.849l-29.245,0l0,-5.849l0,0Z" style="fill:#6cc;"/><rect x="117.843" y="23.433" width="11.698" height="409.438" style="fill:#2d2d2d;"/><path d="M123.692,239.85c1.615,0 2.925,1.31 2.925,2.925c0,1.615 -1.31,2.925 -2.925,2.925c-1.615,0 -2.924,-1.31 -2.924,-2.925c0,-1.615 1.309,-2.925 2.924,-2.925Z" style="fill:#fc6;"/><path d="M164.636,216.454l70.189,0l0,5.849l-70.189,0l0,-5.849l0,0Z" style="fill:#fc6;"/><rect x="240.674" y="216.454" width="29.245" height="5.849" style="fill:#6cc;"/><rect x="0.861" y="11.735" width="116.982" height="421.136" style="fill:#393939;"/><rect x="24.257" y="17.584" width="40.944" height="5.849" style="fill:#515151;"/><path d="M35.955,29.282l70.19,0l0,5.85l-70.19,0l0,-5.85l0,0Z" style="fill:#515151;"/><rect x="223.127" y="11.736" width="93.586" height="11.698" style="fill:#2d2d2d;"/><rect x="305.015" y="14.659" width="5.849" height="5.849" style="fill:#515151;"/><rect x="398.6" y="14.659" width="5.849" height="5.849" style="fill:#515151;"/><path d="M35.955,40.981l64.34,0l0,5.849c9.512,0.949 -41.478,0.112 -64.428,0l0.088,-5.849l0,0Z" style="fill:#515151;"/><path d="M158.787,76.075l35.095,0l0,5.849l-40.944,0l0,-5.849" style="fill:#cb6077;"/><path d="M164.636,87.773l52.642,0l0,5.85l-52.642,0l0,-5.85l0,0Z" style="fill:#fc6;"/><path d="M164.636,99.472l64.341,0l0,5.849l-64.341,0l0,-5.849l0,0Z" style="fill:#fc6;"/><path d="M164.636,111.17l52.642,0l0,5.849l-52.642,0l0,-5.849l0,0Z" style="fill:#fc6;"/><path d="M164.636,122.868l70.189,0l0,5.849l-70.189,0l0,-5.849l0,0Z" style="fill:#fc6;"/><rect x="223.127" y="111.17" width="29.245" height="5.849" style="fill:#6cc;"/><rect x="240.674" y="122.868" width="29.245" height="5.849" style="fill:#6cc;"/><path d="M223.127,87.773l52.643,0l0,5.85l-52.643,0l0,-5.85l0,0Z" style="fill:#f99157;"/><path d="M234.826,99.472l64.34,0l0,5.849l-64.34,0l0,-5.849l0,0Z" style="fill:#f99157;"/><path d="M152.938,146.264l40.944,0l0,5.85l-40.944,0l0,-5.85l0,0Z" style="fill:#f2777a;"/><path d="M152.938,239.85l40.944,0l0,5.85l-40.944,0l0,-5.85l0,0Z" style="fill:#f2777a;"/><path d="M199.731,239.85l23.396,0l0,5.85l-23.396,0l0,-5.85l0,0Z" style="fill:#c9c;"/><path d="M152.938,157.963l52.642,0l0,5.849l-52.642,0l0,-5.849l0,0Z" style="fill:#f2777a;"/><path d="M164.636,169.661l52.642,0l0,5.849l-52.642,0l0,-5.849l0,0Z" style="fill:#fc6;"/><path d="M164.636,181.36l64.341,0l0,5.849l-64.341,0l0,-5.849l0,0Z" style="fill:#fc6;"/><path d="M164.636,204.756l40.944,0l0,5.849l-40.944,0l0,-5.849l0,0Z" style="fill:#fc6;"/><path d="M211.429,204.756l23.396,0l0,5.849l-23.396,0l0,-5.849l0,0Z" style="fill:#6cc;"/><path d="M223.127,169.661l52.643,0l0,5.849l-52.643,0l0,-5.849l0,0Z" style="fill:#f99157;"/><rect x="234.825" y="181.36" width="46.793" height="5.849" style="fill:#f99157;"/><path d="M240.674,204.756l46.793,0l0,5.849l-46.793,0l0,-5.849l0,0Z" style="fill:#f99157;"/><path d="M164.636,193.058l40.944,0l0,5.849l-40.944,0l0,-5.849l0,0Z" style="fill:#fc6;"/><path d="M164.636,251.549l35.095,0l0,5.849l-35.095,0l0,-5.849l0,0Z" style="fill:#fc6;"/><path d="M164.636,263.247l64.341,0l0,5.849l-64.341,0l0,-5.849l0,0Z" style="fill:#fc6;"/><rect x="205.58" y="251.549" width="35.095" height="5.849" style="fill:#f99157;"/><path d="M234.825,263.247l46.793,0l0,5.849l-46.793,0l0,-5.849l0,0Z" style="fill:#f99157;"/><path d="M164.636,274.945l40.944,0l0,5.849l-40.944,0l0,-5.849l0,0Z" style="fill:#fc6;"/><path d="M164.636,286.643l64.341,0l0,5.85l-64.341,0l0,-5.85l0,0Z" style="fill:#a09f93;"/><path d="M234.825,286.643l40.944,0l0,5.85l-40.944,0l0,-5.85l0,0Z" style="fill:#a09f93;"/><path d="M164.636,298.342l70.189,0l0,5.849l-70.189,0l0,-5.849l0,0Z" style="fill:#a09f93;"/><path d="M164.636,310.04l46.793,0l0,5.849l-46.793,0l0,-5.849l0,0Z" style="fill:#a09f93;"/><path d="M240.674,298.342l40.944,0l0,5.849l-40.944,0l0,-5.849l0,0Z" style="fill:#a09f93;"/><path d="M217.278,310.04l40.944,0l0,5.849l-40.944,0l0,-5.849l0,0Z" style="fill:#a09f93;"/><path d="M211.429,193.058l52.642,0l0,5.849l-52.642,0l0,-5.849l0,0Z" style="fill:#f99157;"/><path d="M35.956,52.679l70.189,0l0,5.849l-70.278,0l0.088,-5.849l0.001,0Z" style="fill:#515151;"/><path d="M47.654,64.377l52.642,0l0,5.849l-52.642,0l0,-5.849l0,0Z" style="fill:#515151;"/><path d="M47.654,76.075l64.34,0l0,5.849l-64.34,0l0,-5.849l0,0Z" style="fill:#515151;"/><path d="M47.654,87.773l58.491,0l0,5.85l-58.491,0l0,-5.85l0,0Z" style="fill:#515151;"/><rect x="0.86" y="108.544" width="116.982" height="11.401" style="fill:#2d2d2d;"/><path d="M47.654,99.472l40.943,0l0,5.849l-40.943,0l0,-5.849l0,0Z" style="fill:#515151;"/><path d="M35.955,157.963l70.19,0l0,5.849l-70.19,0l0,-5.849l0,0Z" style="fill:#515151;"/><rect x="35.955" y="169.661" width="40.944" height="5.849" style="fill:#515151;"/><path d="M35.955,181.36l58.492,0l0,5.849l-58.492,0l0,-5.849l0,0Z" style="fill:#515151;"/><path d="M35.955,193.058l29.246,0l-0.044,5.849l-29.202,0l0,-5.849l0,0Z" style="fill:#515151;"/><path d="M59.352,111.17l40.944,0l0,5.849l-40.944,0l0,-5.849l0,0Z" style="fill:#515151;"/><path d="M228.976,14.659l40.944,0l0,5.85l-40.944,0l0,-5.85l0,0Z" style="fill:#515151;"/><path d="M152.938,40.981l134.529,0l0,5.849l-134.529,0l0,-5.849l0,0Z" style="fill:#515151;"/><rect x="152.938" y="52.679" width="64.34" height="5.849" style="fill:#515151;"/><rect x="47.654" y="111.17" width="5.849" height="5.849" style="fill:#b8afad;"/><path d="M59.352,122.868l52.642,0l0,5.849l-52.642,0l0,-5.849l0,0Z" style="fill:#515151;"/><rect x="47.654" y="122.868" width="5.849" height="5.849" style="fill:#b8afad;"/><path d="M59.352,134.566l40.944,0l0,5.849l-40.944,0l0,-5.849l0,0Z" style="fill:#515151;"/><rect x="47.654" y="134.566" width="5.849" height="5.849" style="fill:#b8afad;"/><path d="M59.352,146.264l52.642,0l0,5.85l-52.642,0l0,-5.85l0,0Z" style="fill:#515151;"/><rect x="47.654" y="146.264" width="5.849" height="5.849" style="fill:#b8afad;"/><rect x="129.541" y="11.736" width="93.586" height="11.698" style="fill:#393939;"/><rect x="410.299" y="11.736" width="93.586" height="11.698" style="fill:#393939;"/><path d="M120.767,169.661l5.849,0l0,5.849l-5.849,0l0,-5.849l0,0Z" style="fill:#9c9;"/><rect x="120.767" y="181.36" width="5.849" height="5.849" style="fill:#9c9;"/><g><path d="M240.674,2.961l40.944,0l0,5.849l-40.944,0l0,-5.849l0,0Z" style="fill:#a09f93;"/><rect x="228.976" y="2.961" width="5.849" height="5.849" style="fill:#a09f93;"/></g><rect x="214.353" y="14.659" width="5.849" height="5.849" style="fill:#515151;"/><path d="M135.391,14.659l52.642,0l0,5.85l-52.642,0l0,-5.85l0,0Z" style="fill:#515151;"/><rect x="117.843" y="11.735" width="11.698" height="11.698" style="fill:#2d2d2d;"/><rect x="322.562" y="14.659" width="40.944" height="5.849" style="fill:#515151;"/><rect x="416.148" y="14.659" width="58.491" height="5.849" style="fill:#515151;"/><rect x="492.186" y="14.659" width="5.849" height="5.849" style="fill:#515151;"/><path d="M15.484,17.584c1.615,0 2.924,1.31 2.924,2.925c0,1.615 -1.309,2.924 -2.924,2.924c-1.616,0 -2.925,-1.309 -2.925,-2.924c0,-1.615 1.309,-2.925 2.925,-2.925Z" style="fill:#d27b53;"/><path d="M27.182,29.282c1.615,0 2.924,1.31 2.924,2.925c0,1.615 -1.309,2.924 -2.924,2.924c-1.615,0 -2.925,-1.309 -2.925,-2.924c0,-1.615 1.31,-2.925 2.925,-2.925Z" style="fill:#d27b53;"/><path d="M27.182,40.981c1.615,0 2.924,1.309 2.924,2.924c0,1.615 -1.309,2.925 -2.924,2.925c-1.615,0 -2.925,-1.31 -2.925,-2.925c0,-1.615 1.31,-2.924 2.925,-2.924Z" style="fill:#d27b53;"/><path d="M27.182,52.679c1.615,0 2.924,1.309 2.924,2.924c0,1.616 -1.309,2.925 -2.924,2.925c-1.615,0 -2.925,-1.309 -2.925,-2.925c0,-1.615 1.31,-2.924 2.925,-2.924Z" style="fill:#d27b53;"/><path d="M38.88,64.377c1.615,0 2.925,1.309 2.925,2.925c0,1.615 -1.31,2.924 -2.925,2.924c-1.615,0 -2.925,-1.309 -2.925,-2.924c0,-1.616 1.31,-2.925 2.925,-2.925Z" style="fill:#d27b53;"/><path d="M38.88,76.075c1.615,0 2.925,1.31 2.925,2.925c0,1.615 -1.31,2.924 -2.925,2.924c-1.615,0 -2.925,-1.309 -2.925,-2.924c0,-1.615 1.31,-2.925 2.925,-2.925Z" style="fill:#d27b53;"/><path d="M38.88,87.773c1.615,0 2.925,1.31 2.925,2.925c0,1.615 -1.31,2.924 -2.925,2.924c-1.615,0 -2.925,-1.309 -2.925,-2.924c0,-1.615 1.31,-2.925 2.925,-2.925Z" style="fill:#d27b53;"/><path d="M38.88,99.472c1.615,0 2.925,1.309 2.925,2.924c0,1.615 -1.31,2.925 -2.925,2.925c-1.615,0 -2.925,-1.31 -2.925,-2.925c0,-1.615 1.31,-2.924 2.925,-2.924Z" style="fill:#d27b53;"/><path d="M27.182,157.963c1.615,0 2.924,1.309 2.924,2.925c0,1.615 -1.309,2.924 -2.924,2.924c-1.615,0 -2.925,-1.309 -2.925,-2.924c0,-1.616 1.31,-2.925 2.925,-2.925Z" style="fill:#d27b53;"/><path d="M27.182,169.661c1.615,0 2.924,1.31 2.924,2.925c0,1.615 -1.309,2.924 -2.924,2.924c-1.615,0 -2.925,-1.309 -2.925,-2.924c0,-1.615 1.31,-2.925 2.925,-2.925Z" style="fill:#d27b53;"/><path d="M27.182,181.359c1.615,0 2.924,1.31 2.924,2.925c0,1.615 -1.309,2.925 -2.924,2.925c-1.615,0 -2.925,-1.31 -2.925,-2.925c0,-1.615 1.31,-2.925 2.925,-2.925Z" style="fill:#d27b53;"/><path d="M27.182,193.058c1.615,0 2.924,1.309 2.924,2.924c0,1.615 -1.309,2.925 -2.924,2.925c-1.615,0 -2.925,-1.31 -2.925,-2.925c0,-1.615 1.31,-2.924 2.925,-2.924Z" style="fill:#d27b53;"/><path d="M6.71,2.961c1.615,0 2.924,1.31 2.924,2.925c0,1.615 -1.309,2.924 -2.924,2.924c-1.615,0 -2.925,-1.309 -2.925,-2.924c0,-1.615 1.31,-2.925 2.925,-2.925Z" style="fill:#f2777a;"/><path d="M15.484,2.961c1.615,0 2.924,1.31 2.924,2.925c0,1.615 -1.309,2.924 -2.924,2.924c-1.616,0 -2.925,-1.309 -2.925,-2.924c0,-1.615 1.309,-2.925 2.925,-2.925Z" style="fill:#f4bc87;"/><path d="M24.257,2.961c1.615,0 2.925,1.31 2.925,2.925c0,1.615 -1.31,2.924 -2.925,2.924c-1.615,0 -2.924,-1.309 -2.924,-2.924c0,-1.615 1.309,-2.925 2.924,-2.925Z" style="fill:#9c9;"/></g></svg>