<?xml version="1.0" standalone="no"?><!DOCTYPE svg PUBLIC "-//W3C//DTD SVG 1.1//EN" "http://www.w3.org/Graphics/SVG/1.1/DTD/svg11.dtd"><svg width="100%" height="100%" viewBox="0 0 965 530" version="1.1" xmlns="http://www.w3.org/2000/svg" xmlns:xlink="http://www.w3.org/1999/xlink" xml:space="preserve" style="fill-rule:evenodd;clip-rule:evenodd;stroke-linejoin:round;stroke-miterlimit:1.41421;"><g><rect x="0.699" y="0.49" width="963.349" height="529.293" style="fill:#747369;"/><rect x="246.886" y="495.333" width="470.971" height="34.451" style="fill:#393939;"/><path d="M271.726,500.82c6.503,0 11.774,5.259 11.774,11.745c0,6.487 -5.271,11.745 -11.774,11.745c-6.503,0 -11.774,-5.259 -11.774,-11.745c0,-6.486 5.271,-11.745 11.774,-11.745Z" style="fill:#6cc;"/><rect x="0.697" y="0.49" width="963.349" height="23.489" style="fill:#f2f0ec;"/><path d="M942.851,6.758c3.252,0 5.887,2.629 5.887,5.873c0,3.243 -2.635,5.872 -5.887,5.872c-3.251,0 -5.887,-2.629 -5.887,-5.872c0,-3.244 2.636,-5.873 5.887,-5.873Z" style="fill:#d3d0c9;"/><path d="M925.19,6.758c3.251,0 5.887,2.629 5.887,5.873c0,3.243 -2.636,5.872 -5.887,5.872c-3.252,0 -5.887,-2.629 -5.887,-5.872c0,-3.244 2.635,-5.873 5.887,-5.873Z" style="fill:#d3d0c9;"/><path d="M866.318,6.758c3.252,0 5.888,2.629 5.888,5.873c0,3.243 -2.636,5.872 -5.888,5.872c-3.251,0 -5.887,-2.629 -5.887,-5.872c0,-3.244 2.636,-5.873 5.887,-5.873Z" style="fill:#d3d0c9;"/><path d="M848.657,6.758c3.251,0 5.887,2.629 5.887,5.873c0,3.243 -2.636,5.872 -5.887,5.872c-3.251,0 -5.887,-2.629 -5.887,-5.872c0,-3.244 2.636,-5.873 5.887,-5.873Z" style="fill:#d3d0c9;"/><path d="M830.995,6.758c3.252,0 5.887,2.629 5.887,5.873c0,3.243 -2.635,5.872 -5.887,5.872c-3.251,0 -5.887,-2.629 -5.887,-5.872c0,-3.244 2.636,-5.873 5.887,-5.873Z" style="fill:#d3d0c9;"/><path d="M813.334,6.758c3.252,0 5.888,2.629 5.888,5.873c0,3.243 -2.636,5.872 -5.888,5.872c-3.251,0 -5.887,-2.629 -5.887,-5.872c0,-3.244 2.636,-5.873 5.887,-5.873Z" style="fill:#d3d0c9;"/><rect x="878.113" y="6.758" width="35.323" height="11.745" style="fill:#d3d0c9;"/><path d="M36.234,7.931l70.646,0l0,11.745l-70.646,0l0,-11.745l0,0Z" style="fill:#d3d0c9;"/><path d="M118.655,7.931l35.323,0l0,11.745l-35.323,0l0,-11.745l0,0Z" style="fill:#d3d0c9;"/><path d="M164.575,7.931l24.726,0l0,11.745l-24.726,0l0,-11.745l0,0Z" style="fill:#d3d0c9;"/><path d="M200.485,7.931l35.911,0l0,11.745l-35.911,0l0,-11.745l0,0Z" style="fill:#d3d0c9;"/><path d="M248.178,7.931l47.097,0l0,11.745l-47.097,0l0,-11.745l0,0Z" style="fill:#d3d0c9;"/><path d="M307.049,500.82c6.503,0 11.774,5.259 11.774,11.745c0,6.487 -5.271,11.745 -11.774,11.745c-6.503,0 -11.774,-5.259 -11.774,-11.745c0,-6.486 5.271,-11.745 11.774,-11.745Z" style="fill:#b8afad;"/><path d="M342.265,500.82c6.502,0 11.774,5.259 11.774,11.745c0,6.487 -5.272,11.745 -11.774,11.745c-6.503,0 -11.775,-5.259 -11.775,-11.745c0,-6.486 5.272,-11.745 11.775,-11.745Z" style="fill:#cb6077;"/><path d="M377.694,500.82c6.503,0 11.774,5.259 11.774,11.745c0,6.487 -5.271,11.745 -11.774,11.745c-6.503,0 -11.774,-5.259 -11.774,-11.745c0,-6.486 5.272,-11.745 11.774,-11.745Z" style="fill:#6cc;"/><path d="M413.125,500.82c6.502,0 11.774,5.259 11.774,11.745c0,6.487 -5.272,11.745 -11.774,11.745c-6.503,0 -11.775,-5.259 -11.775,-11.745c0,-6.486 5.272,-11.745 11.775,-11.745Z" style="fill:#6cc;"/><path d="M448.447,500.82c6.503,0 11.775,5.259 11.775,11.745c0,6.487 -5.272,11.745 -11.775,11.745c-6.502,0 -11.774,-5.259 -11.774,-11.745c0,-6.486 5.272,-11.745 11.774,-11.745Z" style="fill:#6cc;"/><path d="M483.662,500.82c6.503,0 11.775,5.259 11.775,11.745c0,6.487 -5.272,11.745 -11.775,11.745c-6.502,0 -11.774,-5.259 -11.774,-11.745c0,-6.486 5.272,-11.745 11.774,-11.745Z" style="fill:#f99157;"/><path d="M518.985,500.82c6.503,0 11.774,5.259 11.774,11.745c0,6.487 -5.271,11.745 -11.774,11.745c-6.503,0 -11.774,-5.259 -11.774,-11.745c0,-6.486 5.271,-11.745 11.774,-11.745Z" style="fill:#6cc;"/><path d="M554.309,500.82c6.503,0 11.774,5.259 11.774,11.745c0,6.487 -5.271,11.745 -11.774,11.745c-6.503,0 -11.774,-5.259 -11.774,-11.745c0,-6.486 5.271,-11.745 11.774,-11.745Z" style="fill:#f99157;"/><path d="M589.632,500.82c6.502,0 11.774,5.259 11.774,11.745c0,6.487 -5.272,11.745 -11.774,11.745c-6.503,0 -11.775,-5.259 -11.775,-11.745c0,-6.486 5.272,-11.745 11.775,-11.745Z" style="fill:#c9c;"/><path d="M624.954,500.82c6.503,0 11.775,5.259 11.775,11.745c0,6.487 -5.272,11.745 -11.775,11.745c-6.502,0 -11.774,-5.259 -11.774,-11.745c0,-6.486 5.272,-11.745 11.774,-11.745Z" style="fill:#9c9;"/><path d="M660.277,500.82c6.503,0 11.774,5.259 11.774,11.745c0,6.487 -5.271,11.745 -11.774,11.745c-6.503,0 -11.774,-5.259 -11.774,-11.745c0,-6.486 5.271,-11.745 11.774,-11.745Z" style="fill:#6cc;"/><path d="M695.6,500.82c6.503,0 11.774,5.259 11.774,11.745c0,6.487 -5.271,11.745 -11.774,11.745c-6.503,0 -11.774,-5.259 -11.774,-11.745c0,-6.486 5.271,-11.745 11.774,-11.745Z" style="fill:#d3d0c9;"/><path d="M413.017,500.82c6.503,0 11.774,5.259 11.774,11.745c0,6.487 -5.271,11.745 -11.774,11.745c-6.503,0 -11.774,-5.259 -11.774,-11.745c0,-6.486 5.271,-11.745 11.774,-11.745Z" style="fill:#c9c;"/><path d="M18.576,7.933c3.252,0 5.887,2.629 5.887,5.872c0,3.243 -2.635,5.872 -5.887,5.872c-3.251,0 -5.887,-2.629 -5.887,-5.872c0,-3.243 2.636,-5.872 5.887,-5.872Z" style="fill:#d3d0c9;"/><rect x="895.758" y="37.296" width="47.097" height="46.979" style="fill:#d3d0c9;"/><rect x="895.758" y="96.019" width="47.097" height="46.979" style="fill:#a09f93;"/><rect x="895.758" y="154.742" width="47.097" height="46.979" style="fill:#393939;"/></g></svg>